G04 EAGLE Gerber RS-274X export*
G75*
%MOMM*%
%FSLAX34Y34*%
%LPD*%
%INSoldermask Bottom*%
%IPPOS*%
%AMOC8*
5,1,8,0,0,1.08239X$1,22.5*%
G01*
%ADD10C,2.082800*%
%ADD11R,1.879600X1.879600*%
%ADD12C,1.879600*%
%ADD13C,0.506016*%
%ADD14R,2.171700X0.802300*%
%ADD15C,1.633200*%
%ADD16C,0.701791*%
%ADD17C,2.453200*%
%ADD18C,2.753200*%
%ADD19R,1.853200X1.853200*%
%ADD20C,1.853200*%
%ADD21C,3.505200*%
%ADD22R,2.003200X2.003200*%
%ADD23C,2.003200*%
%ADD24R,3.993200X1.193200*%
%ADD25R,8.083200X11.043200*%
%ADD26R,1.203200X1.303200*%
%ADD27R,2.203200X2.203200*%
%ADD28C,2.743200*%
%ADD29P,2.969212X8X112.500000*%
%ADD30C,1.711200*%
%ADD31C,3.632200*%
%ADD32R,0.853200X0.703200*%
%ADD33R,2.063200X2.063200*%
%ADD34C,2.063200*%
%ADD35C,4.775200*%
%ADD36C,3.251200*%
%ADD37R,5.303200X2.103200*%
%ADD38C,0.850800*%
%ADD39R,10.613200X11.003200*%
%ADD40R,3.203200X1.270000*%
%ADD41R,1.003200X1.403200*%
%ADD42C,0.959600*%
%ADD43C,0.254000*%

G36*
X182202Y904803D02*
X182202Y904803D01*
X182204Y904801D01*
X182595Y904832D01*
X182599Y904836D01*
X182602Y904833D01*
X182984Y904924D01*
X182988Y904929D01*
X182992Y904927D01*
X183354Y905077D01*
X183357Y905082D01*
X183361Y905080D01*
X183695Y905285D01*
X183697Y905290D01*
X183701Y905290D01*
X184000Y905545D01*
X184001Y905550D01*
X184005Y905550D01*
X184260Y905849D01*
X184261Y905855D01*
X184265Y905855D01*
X184470Y906189D01*
X184469Y906195D01*
X184474Y906196D01*
X184624Y906558D01*
X184623Y906560D01*
X184624Y906560D01*
X184622Y906563D01*
X184622Y906564D01*
X184626Y906566D01*
X184717Y906948D01*
X184715Y906953D01*
X184717Y906954D01*
X184718Y906955D01*
X184749Y907346D01*
X184747Y907349D01*
X184749Y907350D01*
X184749Y912850D01*
X184747Y912852D01*
X184749Y912854D01*
X184718Y913245D01*
X184714Y913249D01*
X184717Y913252D01*
X184626Y913634D01*
X184621Y913638D01*
X184624Y913642D01*
X184474Y914004D01*
X184468Y914007D01*
X184470Y914011D01*
X184265Y914345D01*
X184260Y914347D01*
X184260Y914351D01*
X184005Y914650D01*
X184000Y914651D01*
X184000Y914655D01*
X183701Y914910D01*
X183695Y914911D01*
X183695Y914915D01*
X183361Y915120D01*
X183355Y915119D01*
X183354Y915124D01*
X182992Y915274D01*
X182986Y915272D01*
X182984Y915276D01*
X182602Y915367D01*
X182595Y915364D01*
X182591Y915368D01*
X173400Y915399D01*
X173398Y915397D01*
X173396Y915399D01*
X173005Y915368D01*
X173001Y915364D01*
X172998Y915367D01*
X172616Y915276D01*
X172612Y915271D01*
X172608Y915274D01*
X172246Y915124D01*
X172243Y915118D01*
X172239Y915120D01*
X171905Y914915D01*
X171903Y914910D01*
X171899Y914910D01*
X171600Y914655D01*
X171599Y914650D01*
X171595Y914650D01*
X171340Y914351D01*
X171339Y914345D01*
X171335Y914345D01*
X171130Y914011D01*
X171131Y914005D01*
X171127Y914004D01*
X170977Y913642D01*
X170978Y913636D01*
X170974Y913634D01*
X170883Y913252D01*
X170885Y913247D01*
X170882Y913245D01*
X170851Y912854D01*
X170853Y912851D01*
X170851Y912850D01*
X170851Y907350D01*
X170853Y907348D01*
X170851Y907346D01*
X170882Y906955D01*
X170886Y906951D01*
X170883Y906948D01*
X170974Y906566D01*
X170979Y906562D01*
X170977Y906558D01*
X171127Y906196D01*
X171132Y906193D01*
X171130Y906189D01*
X171335Y905855D01*
X171340Y905853D01*
X171340Y905849D01*
X171595Y905550D01*
X171600Y905549D01*
X171600Y905545D01*
X171899Y905290D01*
X171905Y905289D01*
X171905Y905285D01*
X172239Y905080D01*
X172245Y905081D01*
X172246Y905077D01*
X172608Y904927D01*
X172614Y904928D01*
X172616Y904924D01*
X172998Y904833D01*
X173005Y904836D01*
X173009Y904832D01*
X182200Y904801D01*
X182202Y904803D01*
G37*
G36*
X182202Y888003D02*
X182202Y888003D01*
X182204Y888001D01*
X182595Y888032D01*
X182599Y888036D01*
X182602Y888033D01*
X182984Y888124D01*
X182988Y888129D01*
X182992Y888127D01*
X183354Y888277D01*
X183357Y888282D01*
X183361Y888280D01*
X183695Y888485D01*
X183697Y888490D01*
X183701Y888490D01*
X184000Y888745D01*
X184001Y888750D01*
X184005Y888750D01*
X184260Y889049D01*
X184261Y889055D01*
X184265Y889055D01*
X184470Y889389D01*
X184469Y889395D01*
X184474Y889396D01*
X184624Y889758D01*
X184623Y889760D01*
X184624Y889760D01*
X184622Y889763D01*
X184622Y889764D01*
X184626Y889766D01*
X184717Y890148D01*
X184715Y890153D01*
X184717Y890154D01*
X184718Y890155D01*
X184749Y890546D01*
X184747Y890549D01*
X184749Y890550D01*
X184749Y896050D01*
X184747Y896052D01*
X184749Y896054D01*
X184718Y896445D01*
X184714Y896449D01*
X184717Y896452D01*
X184626Y896834D01*
X184621Y896838D01*
X184624Y896842D01*
X184474Y897204D01*
X184468Y897207D01*
X184470Y897211D01*
X184265Y897545D01*
X184260Y897547D01*
X184260Y897551D01*
X184005Y897850D01*
X184000Y897851D01*
X184000Y897855D01*
X183701Y898110D01*
X183695Y898111D01*
X183695Y898115D01*
X183361Y898320D01*
X183355Y898319D01*
X183354Y898324D01*
X182992Y898474D01*
X182986Y898472D01*
X182984Y898476D01*
X182602Y898567D01*
X182595Y898564D01*
X182591Y898568D01*
X173400Y898599D01*
X173398Y898597D01*
X173396Y898599D01*
X173005Y898568D01*
X173001Y898564D01*
X172998Y898567D01*
X172616Y898476D01*
X172612Y898471D01*
X172608Y898474D01*
X172246Y898324D01*
X172243Y898318D01*
X172239Y898320D01*
X171905Y898115D01*
X171903Y898110D01*
X171899Y898110D01*
X171600Y897855D01*
X171599Y897850D01*
X171595Y897850D01*
X171340Y897551D01*
X171339Y897545D01*
X171335Y897545D01*
X171130Y897211D01*
X171131Y897205D01*
X171127Y897204D01*
X170977Y896842D01*
X170978Y896836D01*
X170974Y896834D01*
X170883Y896452D01*
X170885Y896447D01*
X170882Y896445D01*
X170851Y896054D01*
X170853Y896051D01*
X170851Y896050D01*
X170851Y890550D01*
X170853Y890548D01*
X170851Y890546D01*
X170882Y890155D01*
X170886Y890151D01*
X170883Y890148D01*
X170974Y889766D01*
X170979Y889762D01*
X170977Y889758D01*
X171127Y889396D01*
X171132Y889393D01*
X171130Y889389D01*
X171335Y889055D01*
X171340Y889053D01*
X171340Y889049D01*
X171595Y888750D01*
X171600Y888749D01*
X171600Y888745D01*
X171899Y888490D01*
X171905Y888489D01*
X171905Y888485D01*
X172239Y888280D01*
X172245Y888281D01*
X172246Y888277D01*
X172608Y888127D01*
X172614Y888128D01*
X172616Y888124D01*
X172998Y888033D01*
X173005Y888036D01*
X173009Y888032D01*
X182200Y888001D01*
X182202Y888003D01*
G37*
G36*
X156802Y866703D02*
X156802Y866703D01*
X156804Y866701D01*
X157195Y866732D01*
X157199Y866736D01*
X157202Y866733D01*
X157584Y866824D01*
X157588Y866829D01*
X157592Y866827D01*
X157954Y866977D01*
X157957Y866982D01*
X157961Y866980D01*
X158295Y867185D01*
X158297Y867190D01*
X158301Y867190D01*
X158600Y867445D01*
X158601Y867450D01*
X158605Y867450D01*
X158860Y867749D01*
X158861Y867755D01*
X158865Y867755D01*
X159070Y868089D01*
X159069Y868095D01*
X159074Y868096D01*
X159224Y868458D01*
X159223Y868460D01*
X159224Y868460D01*
X159222Y868463D01*
X159222Y868464D01*
X159226Y868466D01*
X159317Y868848D01*
X159315Y868853D01*
X159317Y868854D01*
X159318Y868855D01*
X159349Y869246D01*
X159347Y869249D01*
X159349Y869250D01*
X159349Y874750D01*
X159347Y874752D01*
X159349Y874754D01*
X159318Y875145D01*
X159314Y875149D01*
X159317Y875152D01*
X159226Y875534D01*
X159221Y875538D01*
X159224Y875542D01*
X159074Y875904D01*
X159068Y875907D01*
X159070Y875911D01*
X158865Y876245D01*
X158860Y876247D01*
X158860Y876251D01*
X158605Y876550D01*
X158600Y876551D01*
X158600Y876555D01*
X158301Y876810D01*
X158295Y876811D01*
X158295Y876815D01*
X157961Y877020D01*
X157955Y877019D01*
X157954Y877024D01*
X157592Y877174D01*
X157586Y877172D01*
X157584Y877176D01*
X157202Y877267D01*
X157195Y877264D01*
X157191Y877268D01*
X148000Y877299D01*
X147998Y877297D01*
X147996Y877299D01*
X147605Y877268D01*
X147601Y877264D01*
X147598Y877267D01*
X147216Y877176D01*
X147212Y877171D01*
X147208Y877174D01*
X146846Y877024D01*
X146843Y877018D01*
X146839Y877020D01*
X146505Y876815D01*
X146503Y876810D01*
X146499Y876810D01*
X146200Y876555D01*
X146199Y876550D01*
X146195Y876550D01*
X145940Y876251D01*
X145939Y876245D01*
X145935Y876245D01*
X145730Y875911D01*
X145731Y875905D01*
X145727Y875904D01*
X145577Y875542D01*
X145578Y875536D01*
X145574Y875534D01*
X145483Y875152D01*
X145485Y875147D01*
X145482Y875145D01*
X145451Y874754D01*
X145453Y874751D01*
X145451Y874750D01*
X145451Y869250D01*
X145453Y869248D01*
X145451Y869246D01*
X145482Y868855D01*
X145486Y868851D01*
X145483Y868848D01*
X145574Y868466D01*
X145579Y868462D01*
X145577Y868458D01*
X145727Y868096D01*
X145732Y868093D01*
X145730Y868089D01*
X145935Y867755D01*
X145940Y867753D01*
X145940Y867749D01*
X146195Y867450D01*
X146200Y867449D01*
X146200Y867445D01*
X146499Y867190D01*
X146505Y867189D01*
X146505Y867185D01*
X146839Y866980D01*
X146845Y866981D01*
X146846Y866977D01*
X147208Y866827D01*
X147214Y866828D01*
X147216Y866824D01*
X147598Y866733D01*
X147605Y866736D01*
X147609Y866732D01*
X156800Y866701D01*
X156802Y866703D01*
G37*
G36*
X93302Y854003D02*
X93302Y854003D01*
X93304Y854001D01*
X93695Y854032D01*
X93699Y854036D01*
X93702Y854033D01*
X94084Y854124D01*
X94088Y854129D01*
X94092Y854127D01*
X94454Y854277D01*
X94457Y854282D01*
X94461Y854280D01*
X94795Y854485D01*
X94797Y854490D01*
X94801Y854490D01*
X95100Y854745D01*
X95101Y854750D01*
X95105Y854750D01*
X95360Y855049D01*
X95361Y855055D01*
X95365Y855055D01*
X95570Y855389D01*
X95569Y855395D01*
X95574Y855396D01*
X95724Y855758D01*
X95723Y855760D01*
X95724Y855760D01*
X95722Y855763D01*
X95722Y855764D01*
X95726Y855766D01*
X95817Y856148D01*
X95815Y856153D01*
X95817Y856154D01*
X95818Y856155D01*
X95849Y856546D01*
X95847Y856549D01*
X95849Y856550D01*
X95849Y862050D01*
X95847Y862052D01*
X95849Y862054D01*
X95818Y862445D01*
X95814Y862449D01*
X95817Y862452D01*
X95726Y862834D01*
X95721Y862838D01*
X95724Y862842D01*
X95574Y863204D01*
X95568Y863207D01*
X95570Y863211D01*
X95365Y863545D01*
X95360Y863547D01*
X95360Y863551D01*
X95105Y863850D01*
X95100Y863851D01*
X95100Y863855D01*
X94801Y864110D01*
X94795Y864111D01*
X94795Y864115D01*
X94461Y864320D01*
X94455Y864319D01*
X94454Y864324D01*
X94092Y864474D01*
X94086Y864472D01*
X94084Y864476D01*
X93702Y864567D01*
X93695Y864564D01*
X93691Y864568D01*
X84500Y864599D01*
X84498Y864597D01*
X84496Y864599D01*
X84105Y864568D01*
X84101Y864564D01*
X84098Y864567D01*
X83716Y864476D01*
X83712Y864471D01*
X83708Y864474D01*
X83346Y864324D01*
X83343Y864318D01*
X83339Y864320D01*
X83005Y864115D01*
X83003Y864110D01*
X82999Y864110D01*
X82700Y863855D01*
X82699Y863850D01*
X82695Y863850D01*
X82440Y863551D01*
X82439Y863545D01*
X82435Y863545D01*
X82230Y863211D01*
X82231Y863205D01*
X82227Y863204D01*
X82077Y862842D01*
X82078Y862836D01*
X82074Y862834D01*
X81983Y862452D01*
X81985Y862447D01*
X81982Y862445D01*
X81951Y862054D01*
X81953Y862051D01*
X81951Y862050D01*
X81951Y856550D01*
X81953Y856548D01*
X81951Y856546D01*
X81982Y856155D01*
X81986Y856151D01*
X81983Y856148D01*
X82074Y855766D01*
X82079Y855762D01*
X82077Y855758D01*
X82227Y855396D01*
X82232Y855393D01*
X82230Y855389D01*
X82435Y855055D01*
X82440Y855053D01*
X82440Y855049D01*
X82695Y854750D01*
X82700Y854749D01*
X82700Y854745D01*
X82999Y854490D01*
X83005Y854489D01*
X83005Y854485D01*
X83339Y854280D01*
X83345Y854281D01*
X83346Y854277D01*
X83708Y854127D01*
X83714Y854128D01*
X83716Y854124D01*
X84098Y854033D01*
X84105Y854036D01*
X84109Y854032D01*
X93300Y854001D01*
X93302Y854003D01*
G37*
G36*
X156802Y849903D02*
X156802Y849903D01*
X156804Y849901D01*
X157195Y849932D01*
X157199Y849936D01*
X157202Y849933D01*
X157584Y850024D01*
X157588Y850029D01*
X157592Y850027D01*
X157954Y850177D01*
X157957Y850182D01*
X157961Y850180D01*
X158295Y850385D01*
X158297Y850390D01*
X158301Y850390D01*
X158600Y850645D01*
X158601Y850650D01*
X158605Y850650D01*
X158860Y850949D01*
X158861Y850955D01*
X158865Y850955D01*
X159070Y851289D01*
X159069Y851295D01*
X159074Y851296D01*
X159224Y851658D01*
X159223Y851660D01*
X159224Y851660D01*
X159222Y851663D01*
X159222Y851664D01*
X159226Y851666D01*
X159317Y852048D01*
X159315Y852053D01*
X159317Y852054D01*
X159318Y852055D01*
X159349Y852446D01*
X159347Y852449D01*
X159349Y852450D01*
X159349Y857950D01*
X159347Y857952D01*
X159349Y857954D01*
X159318Y858345D01*
X159314Y858349D01*
X159317Y858352D01*
X159226Y858734D01*
X159221Y858738D01*
X159224Y858742D01*
X159074Y859104D01*
X159068Y859107D01*
X159070Y859111D01*
X158865Y859445D01*
X158860Y859447D01*
X158860Y859451D01*
X158605Y859750D01*
X158600Y859751D01*
X158600Y859755D01*
X158301Y860010D01*
X158295Y860011D01*
X158295Y860015D01*
X157961Y860220D01*
X157955Y860219D01*
X157954Y860224D01*
X157592Y860374D01*
X157586Y860372D01*
X157584Y860376D01*
X157202Y860467D01*
X157195Y860464D01*
X157191Y860468D01*
X148000Y860499D01*
X147998Y860497D01*
X147996Y860499D01*
X147605Y860468D01*
X147601Y860464D01*
X147598Y860467D01*
X147216Y860376D01*
X147212Y860371D01*
X147208Y860374D01*
X146846Y860224D01*
X146843Y860218D01*
X146839Y860220D01*
X146505Y860015D01*
X146503Y860010D01*
X146499Y860010D01*
X146200Y859755D01*
X146199Y859750D01*
X146195Y859750D01*
X145940Y859451D01*
X145939Y859445D01*
X145935Y859445D01*
X145730Y859111D01*
X145731Y859105D01*
X145727Y859104D01*
X145577Y858742D01*
X145578Y858736D01*
X145574Y858734D01*
X145483Y858352D01*
X145485Y858347D01*
X145482Y858345D01*
X145451Y857954D01*
X145453Y857951D01*
X145451Y857950D01*
X145451Y852450D01*
X145453Y852448D01*
X145451Y852446D01*
X145482Y852055D01*
X145486Y852051D01*
X145483Y852048D01*
X145574Y851666D01*
X145579Y851662D01*
X145577Y851658D01*
X145727Y851296D01*
X145732Y851293D01*
X145730Y851289D01*
X145935Y850955D01*
X145940Y850953D01*
X145940Y850949D01*
X146195Y850650D01*
X146200Y850649D01*
X146200Y850645D01*
X146499Y850390D01*
X146505Y850389D01*
X146505Y850385D01*
X146839Y850180D01*
X146845Y850181D01*
X146846Y850177D01*
X147208Y850027D01*
X147214Y850028D01*
X147216Y850024D01*
X147598Y849933D01*
X147605Y849936D01*
X147609Y849932D01*
X156800Y849901D01*
X156802Y849903D01*
G37*
G36*
X93302Y837203D02*
X93302Y837203D01*
X93304Y837201D01*
X93695Y837232D01*
X93699Y837236D01*
X93702Y837233D01*
X94084Y837324D01*
X94088Y837329D01*
X94092Y837327D01*
X94454Y837477D01*
X94457Y837482D01*
X94461Y837480D01*
X94795Y837685D01*
X94797Y837690D01*
X94801Y837690D01*
X95100Y837945D01*
X95101Y837950D01*
X95105Y837950D01*
X95360Y838249D01*
X95361Y838255D01*
X95365Y838255D01*
X95570Y838589D01*
X95569Y838595D01*
X95574Y838596D01*
X95724Y838958D01*
X95723Y838960D01*
X95724Y838960D01*
X95722Y838963D01*
X95722Y838964D01*
X95726Y838966D01*
X95817Y839348D01*
X95815Y839353D01*
X95817Y839354D01*
X95818Y839355D01*
X95849Y839746D01*
X95847Y839749D01*
X95849Y839750D01*
X95849Y845250D01*
X95847Y845252D01*
X95849Y845254D01*
X95818Y845645D01*
X95814Y845649D01*
X95817Y845652D01*
X95726Y846034D01*
X95721Y846038D01*
X95724Y846042D01*
X95574Y846404D01*
X95568Y846407D01*
X95570Y846411D01*
X95365Y846745D01*
X95360Y846747D01*
X95360Y846751D01*
X95105Y847050D01*
X95100Y847051D01*
X95100Y847055D01*
X94801Y847310D01*
X94795Y847311D01*
X94795Y847315D01*
X94461Y847520D01*
X94455Y847519D01*
X94454Y847524D01*
X94092Y847674D01*
X94086Y847672D01*
X94084Y847676D01*
X93702Y847767D01*
X93695Y847764D01*
X93691Y847768D01*
X84500Y847799D01*
X84498Y847797D01*
X84496Y847799D01*
X84105Y847768D01*
X84101Y847764D01*
X84098Y847767D01*
X83716Y847676D01*
X83712Y847671D01*
X83708Y847674D01*
X83346Y847524D01*
X83343Y847518D01*
X83339Y847520D01*
X83005Y847315D01*
X83003Y847310D01*
X82999Y847310D01*
X82700Y847055D01*
X82699Y847050D01*
X82695Y847050D01*
X82440Y846751D01*
X82439Y846745D01*
X82435Y846745D01*
X82230Y846411D01*
X82231Y846405D01*
X82227Y846404D01*
X82077Y846042D01*
X82078Y846036D01*
X82074Y846034D01*
X81983Y845652D01*
X81985Y845647D01*
X81982Y845645D01*
X81951Y845254D01*
X81953Y845251D01*
X81951Y845250D01*
X81951Y839750D01*
X81953Y839748D01*
X81951Y839746D01*
X81982Y839355D01*
X81986Y839351D01*
X81983Y839348D01*
X82074Y838966D01*
X82079Y838962D01*
X82077Y838958D01*
X82227Y838596D01*
X82232Y838593D01*
X82230Y838589D01*
X82435Y838255D01*
X82440Y838253D01*
X82440Y838249D01*
X82695Y837950D01*
X82700Y837949D01*
X82700Y837945D01*
X82999Y837690D01*
X83005Y837689D01*
X83005Y837685D01*
X83339Y837480D01*
X83345Y837481D01*
X83346Y837477D01*
X83708Y837327D01*
X83714Y837328D01*
X83716Y837324D01*
X84098Y837233D01*
X84105Y837236D01*
X84109Y837232D01*
X93300Y837201D01*
X93302Y837203D01*
G37*
G36*
X55202Y612703D02*
X55202Y612703D01*
X55204Y612701D01*
X55595Y612732D01*
X55599Y612736D01*
X55602Y612733D01*
X55984Y612824D01*
X55988Y612829D01*
X55992Y612827D01*
X56354Y612977D01*
X56357Y612982D01*
X56361Y612980D01*
X56695Y613185D01*
X56697Y613190D01*
X56701Y613190D01*
X57000Y613445D01*
X57001Y613450D01*
X57005Y613450D01*
X57260Y613749D01*
X57261Y613755D01*
X57265Y613755D01*
X57470Y614089D01*
X57469Y614095D01*
X57474Y614096D01*
X57624Y614458D01*
X57623Y614460D01*
X57624Y614460D01*
X57622Y614463D01*
X57622Y614464D01*
X57626Y614466D01*
X57717Y614848D01*
X57715Y614853D01*
X57717Y614854D01*
X57718Y614855D01*
X57749Y615246D01*
X57747Y615249D01*
X57749Y615250D01*
X57749Y620750D01*
X57747Y620752D01*
X57749Y620754D01*
X57718Y621145D01*
X57714Y621149D01*
X57717Y621152D01*
X57626Y621534D01*
X57621Y621538D01*
X57624Y621542D01*
X57474Y621904D01*
X57468Y621907D01*
X57470Y621911D01*
X57265Y622245D01*
X57260Y622247D01*
X57260Y622251D01*
X57005Y622550D01*
X57000Y622551D01*
X57000Y622555D01*
X56701Y622810D01*
X56695Y622811D01*
X56695Y622815D01*
X56361Y623020D01*
X56355Y623019D01*
X56354Y623024D01*
X55992Y623174D01*
X55986Y623172D01*
X55984Y623176D01*
X55602Y623267D01*
X55595Y623264D01*
X55591Y623268D01*
X46400Y623299D01*
X46398Y623297D01*
X46396Y623299D01*
X46005Y623268D01*
X46001Y623264D01*
X45998Y623267D01*
X45616Y623176D01*
X45612Y623171D01*
X45608Y623174D01*
X45246Y623024D01*
X45243Y623018D01*
X45239Y623020D01*
X44905Y622815D01*
X44903Y622810D01*
X44899Y622810D01*
X44600Y622555D01*
X44599Y622550D01*
X44595Y622550D01*
X44340Y622251D01*
X44339Y622245D01*
X44335Y622245D01*
X44130Y621911D01*
X44131Y621905D01*
X44127Y621904D01*
X43977Y621542D01*
X43978Y621536D01*
X43974Y621534D01*
X43883Y621152D01*
X43885Y621147D01*
X43882Y621145D01*
X43851Y620754D01*
X43853Y620751D01*
X43851Y620750D01*
X43851Y615250D01*
X43853Y615248D01*
X43851Y615246D01*
X43882Y614855D01*
X43886Y614851D01*
X43883Y614848D01*
X43974Y614466D01*
X43979Y614462D01*
X43977Y614458D01*
X44127Y614096D01*
X44132Y614093D01*
X44130Y614089D01*
X44335Y613755D01*
X44340Y613753D01*
X44340Y613749D01*
X44595Y613450D01*
X44600Y613449D01*
X44600Y613445D01*
X44899Y613190D01*
X44905Y613189D01*
X44905Y613185D01*
X45239Y612980D01*
X45245Y612981D01*
X45246Y612977D01*
X45608Y612827D01*
X45614Y612828D01*
X45616Y612824D01*
X45998Y612733D01*
X46005Y612736D01*
X46009Y612732D01*
X55200Y612701D01*
X55202Y612703D01*
G37*
G36*
X55202Y595903D02*
X55202Y595903D01*
X55204Y595901D01*
X55595Y595932D01*
X55599Y595936D01*
X55602Y595933D01*
X55984Y596024D01*
X55988Y596029D01*
X55992Y596027D01*
X56354Y596177D01*
X56357Y596182D01*
X56361Y596180D01*
X56695Y596385D01*
X56697Y596390D01*
X56701Y596390D01*
X57000Y596645D01*
X57001Y596650D01*
X57005Y596650D01*
X57260Y596949D01*
X57261Y596955D01*
X57265Y596955D01*
X57470Y597289D01*
X57469Y597295D01*
X57474Y597296D01*
X57624Y597658D01*
X57623Y597660D01*
X57624Y597660D01*
X57622Y597663D01*
X57622Y597664D01*
X57626Y597666D01*
X57717Y598048D01*
X57715Y598053D01*
X57717Y598054D01*
X57718Y598055D01*
X57749Y598446D01*
X57747Y598449D01*
X57749Y598450D01*
X57749Y603950D01*
X57747Y603952D01*
X57749Y603954D01*
X57718Y604345D01*
X57714Y604349D01*
X57717Y604352D01*
X57626Y604734D01*
X57621Y604738D01*
X57624Y604742D01*
X57474Y605104D01*
X57468Y605107D01*
X57470Y605111D01*
X57265Y605445D01*
X57260Y605447D01*
X57260Y605451D01*
X57005Y605750D01*
X57000Y605751D01*
X57000Y605755D01*
X56701Y606010D01*
X56695Y606011D01*
X56695Y606015D01*
X56361Y606220D01*
X56355Y606219D01*
X56354Y606224D01*
X55992Y606374D01*
X55986Y606372D01*
X55984Y606376D01*
X55602Y606467D01*
X55595Y606464D01*
X55591Y606468D01*
X46400Y606499D01*
X46398Y606497D01*
X46396Y606499D01*
X46005Y606468D01*
X46001Y606464D01*
X45998Y606467D01*
X45616Y606376D01*
X45612Y606371D01*
X45608Y606374D01*
X45246Y606224D01*
X45243Y606218D01*
X45239Y606220D01*
X44905Y606015D01*
X44903Y606010D01*
X44899Y606010D01*
X44600Y605755D01*
X44599Y605750D01*
X44595Y605750D01*
X44340Y605451D01*
X44339Y605445D01*
X44335Y605445D01*
X44130Y605111D01*
X44131Y605105D01*
X44127Y605104D01*
X43977Y604742D01*
X43978Y604736D01*
X43974Y604734D01*
X43883Y604352D01*
X43885Y604347D01*
X43882Y604345D01*
X43851Y603954D01*
X43853Y603951D01*
X43851Y603950D01*
X43851Y598450D01*
X43853Y598448D01*
X43851Y598446D01*
X43882Y598055D01*
X43886Y598051D01*
X43883Y598048D01*
X43974Y597666D01*
X43979Y597662D01*
X43977Y597658D01*
X44127Y597296D01*
X44132Y597293D01*
X44130Y597289D01*
X44335Y596955D01*
X44340Y596953D01*
X44340Y596949D01*
X44595Y596650D01*
X44600Y596649D01*
X44600Y596645D01*
X44899Y596390D01*
X44905Y596389D01*
X44905Y596385D01*
X45239Y596180D01*
X45245Y596181D01*
X45246Y596177D01*
X45608Y596027D01*
X45614Y596028D01*
X45616Y596024D01*
X45998Y595933D01*
X46005Y595936D01*
X46009Y595932D01*
X55200Y595901D01*
X55202Y595903D01*
G37*
G36*
X80602Y422203D02*
X80602Y422203D01*
X80604Y422201D01*
X80995Y422232D01*
X80999Y422236D01*
X81002Y422233D01*
X81384Y422324D01*
X81388Y422329D01*
X81392Y422327D01*
X81754Y422477D01*
X81757Y422482D01*
X81761Y422480D01*
X82095Y422685D01*
X82097Y422690D01*
X82101Y422690D01*
X82400Y422945D01*
X82401Y422950D01*
X82405Y422950D01*
X82660Y423249D01*
X82661Y423255D01*
X82665Y423255D01*
X82870Y423589D01*
X82869Y423595D01*
X82874Y423596D01*
X83024Y423958D01*
X83023Y423960D01*
X83024Y423960D01*
X83022Y423963D01*
X83022Y423964D01*
X83026Y423966D01*
X83117Y424348D01*
X83115Y424353D01*
X83117Y424354D01*
X83118Y424355D01*
X83149Y424746D01*
X83147Y424749D01*
X83149Y424750D01*
X83149Y430250D01*
X83147Y430252D01*
X83149Y430254D01*
X83118Y430645D01*
X83114Y430649D01*
X83117Y430652D01*
X83026Y431034D01*
X83021Y431038D01*
X83024Y431042D01*
X82874Y431404D01*
X82868Y431407D01*
X82870Y431411D01*
X82665Y431745D01*
X82660Y431747D01*
X82660Y431751D01*
X82405Y432050D01*
X82400Y432051D01*
X82400Y432055D01*
X82101Y432310D01*
X82095Y432311D01*
X82095Y432315D01*
X81761Y432520D01*
X81755Y432519D01*
X81754Y432524D01*
X81392Y432674D01*
X81386Y432672D01*
X81384Y432676D01*
X81002Y432767D01*
X80995Y432764D01*
X80991Y432768D01*
X71800Y432799D01*
X71798Y432797D01*
X71796Y432799D01*
X71405Y432768D01*
X71401Y432764D01*
X71398Y432767D01*
X71016Y432676D01*
X71012Y432671D01*
X71008Y432674D01*
X70646Y432524D01*
X70643Y432518D01*
X70639Y432520D01*
X70305Y432315D01*
X70303Y432310D01*
X70299Y432310D01*
X70000Y432055D01*
X69999Y432050D01*
X69995Y432050D01*
X69740Y431751D01*
X69739Y431745D01*
X69735Y431745D01*
X69530Y431411D01*
X69531Y431405D01*
X69527Y431404D01*
X69377Y431042D01*
X69378Y431036D01*
X69374Y431034D01*
X69283Y430652D01*
X69285Y430647D01*
X69282Y430645D01*
X69251Y430254D01*
X69253Y430251D01*
X69251Y430250D01*
X69251Y424750D01*
X69253Y424748D01*
X69251Y424746D01*
X69282Y424355D01*
X69286Y424351D01*
X69283Y424348D01*
X69374Y423966D01*
X69379Y423962D01*
X69377Y423958D01*
X69527Y423596D01*
X69532Y423593D01*
X69530Y423589D01*
X69735Y423255D01*
X69740Y423253D01*
X69740Y423249D01*
X69995Y422950D01*
X70000Y422949D01*
X70000Y422945D01*
X70299Y422690D01*
X70305Y422689D01*
X70305Y422685D01*
X70639Y422480D01*
X70645Y422481D01*
X70646Y422477D01*
X71008Y422327D01*
X71014Y422328D01*
X71016Y422324D01*
X71398Y422233D01*
X71405Y422236D01*
X71409Y422232D01*
X80600Y422201D01*
X80602Y422203D01*
G37*
G36*
X80602Y405403D02*
X80602Y405403D01*
X80604Y405401D01*
X80995Y405432D01*
X80999Y405436D01*
X81002Y405433D01*
X81384Y405524D01*
X81388Y405529D01*
X81392Y405527D01*
X81754Y405677D01*
X81757Y405682D01*
X81761Y405680D01*
X82095Y405885D01*
X82097Y405890D01*
X82101Y405890D01*
X82400Y406145D01*
X82401Y406150D01*
X82405Y406150D01*
X82660Y406449D01*
X82661Y406455D01*
X82665Y406455D01*
X82870Y406789D01*
X82869Y406795D01*
X82874Y406796D01*
X83024Y407158D01*
X83023Y407160D01*
X83024Y407160D01*
X83022Y407163D01*
X83022Y407164D01*
X83026Y407166D01*
X83117Y407548D01*
X83115Y407553D01*
X83117Y407554D01*
X83118Y407555D01*
X83149Y407946D01*
X83147Y407949D01*
X83149Y407950D01*
X83149Y413450D01*
X83147Y413452D01*
X83149Y413454D01*
X83118Y413845D01*
X83114Y413849D01*
X83117Y413852D01*
X83026Y414234D01*
X83021Y414238D01*
X83024Y414242D01*
X82874Y414604D01*
X82868Y414607D01*
X82870Y414611D01*
X82665Y414945D01*
X82660Y414947D01*
X82660Y414951D01*
X82405Y415250D01*
X82400Y415251D01*
X82400Y415255D01*
X82101Y415510D01*
X82095Y415511D01*
X82095Y415515D01*
X81761Y415720D01*
X81755Y415719D01*
X81754Y415724D01*
X81392Y415874D01*
X81386Y415872D01*
X81384Y415876D01*
X81002Y415967D01*
X80995Y415964D01*
X80991Y415968D01*
X71800Y415999D01*
X71798Y415997D01*
X71796Y415999D01*
X71405Y415968D01*
X71401Y415964D01*
X71398Y415967D01*
X71016Y415876D01*
X71012Y415871D01*
X71008Y415874D01*
X70646Y415724D01*
X70643Y415718D01*
X70639Y415720D01*
X70305Y415515D01*
X70303Y415510D01*
X70299Y415510D01*
X70000Y415255D01*
X69999Y415250D01*
X69995Y415250D01*
X69740Y414951D01*
X69739Y414945D01*
X69735Y414945D01*
X69530Y414611D01*
X69531Y414605D01*
X69527Y414604D01*
X69377Y414242D01*
X69378Y414236D01*
X69374Y414234D01*
X69283Y413852D01*
X69285Y413847D01*
X69282Y413845D01*
X69251Y413454D01*
X69253Y413451D01*
X69251Y413450D01*
X69251Y407950D01*
X69253Y407948D01*
X69251Y407946D01*
X69282Y407555D01*
X69286Y407551D01*
X69283Y407548D01*
X69374Y407166D01*
X69379Y407162D01*
X69377Y407158D01*
X69527Y406796D01*
X69532Y406793D01*
X69530Y406789D01*
X69735Y406455D01*
X69740Y406453D01*
X69740Y406449D01*
X69995Y406150D01*
X70000Y406149D01*
X70000Y406145D01*
X70299Y405890D01*
X70305Y405889D01*
X70305Y405885D01*
X70639Y405680D01*
X70645Y405681D01*
X70646Y405677D01*
X71008Y405527D01*
X71014Y405528D01*
X71016Y405524D01*
X71398Y405433D01*
X71405Y405436D01*
X71409Y405432D01*
X80600Y405401D01*
X80602Y405403D01*
G37*
G36*
X220302Y269803D02*
X220302Y269803D01*
X220304Y269801D01*
X220695Y269832D01*
X220699Y269836D01*
X220702Y269833D01*
X221084Y269924D01*
X221088Y269929D01*
X221092Y269927D01*
X221454Y270077D01*
X221457Y270082D01*
X221461Y270080D01*
X221795Y270285D01*
X221797Y270290D01*
X221801Y270290D01*
X222100Y270545D01*
X222101Y270550D01*
X222105Y270550D01*
X222360Y270849D01*
X222361Y270855D01*
X222365Y270855D01*
X222570Y271189D01*
X222569Y271195D01*
X222574Y271196D01*
X222724Y271558D01*
X222723Y271560D01*
X222724Y271560D01*
X222722Y271563D01*
X222722Y271564D01*
X222726Y271566D01*
X222817Y271948D01*
X222815Y271953D01*
X222817Y271954D01*
X222818Y271955D01*
X222849Y272346D01*
X222847Y272349D01*
X222849Y272350D01*
X222849Y277850D01*
X222847Y277852D01*
X222849Y277854D01*
X222818Y278245D01*
X222814Y278249D01*
X222817Y278252D01*
X222726Y278634D01*
X222721Y278638D01*
X222724Y278642D01*
X222574Y279004D01*
X222568Y279007D01*
X222570Y279011D01*
X222365Y279345D01*
X222360Y279347D01*
X222360Y279351D01*
X222105Y279650D01*
X222100Y279651D01*
X222100Y279655D01*
X221801Y279910D01*
X221795Y279911D01*
X221795Y279915D01*
X221461Y280120D01*
X221455Y280119D01*
X221454Y280124D01*
X221092Y280274D01*
X221086Y280272D01*
X221084Y280276D01*
X220702Y280367D01*
X220695Y280364D01*
X220691Y280368D01*
X211500Y280399D01*
X211498Y280397D01*
X211496Y280399D01*
X211105Y280368D01*
X211101Y280364D01*
X211098Y280367D01*
X210716Y280276D01*
X210712Y280271D01*
X210708Y280274D01*
X210346Y280124D01*
X210343Y280118D01*
X210339Y280120D01*
X210005Y279915D01*
X210003Y279910D01*
X209999Y279910D01*
X209700Y279655D01*
X209699Y279650D01*
X209695Y279650D01*
X209440Y279351D01*
X209439Y279345D01*
X209435Y279345D01*
X209230Y279011D01*
X209231Y279005D01*
X209227Y279004D01*
X209077Y278642D01*
X209078Y278636D01*
X209074Y278634D01*
X208983Y278252D01*
X208985Y278247D01*
X208982Y278245D01*
X208951Y277854D01*
X208953Y277851D01*
X208951Y277850D01*
X208951Y272350D01*
X208953Y272348D01*
X208951Y272346D01*
X208982Y271955D01*
X208986Y271951D01*
X208983Y271948D01*
X209074Y271566D01*
X209079Y271562D01*
X209077Y271558D01*
X209227Y271196D01*
X209232Y271193D01*
X209230Y271189D01*
X209435Y270855D01*
X209440Y270853D01*
X209440Y270849D01*
X209695Y270550D01*
X209700Y270549D01*
X209700Y270545D01*
X209999Y270290D01*
X210005Y270289D01*
X210005Y270285D01*
X210339Y270080D01*
X210345Y270081D01*
X210346Y270077D01*
X210708Y269927D01*
X210714Y269928D01*
X210716Y269924D01*
X211098Y269833D01*
X211105Y269836D01*
X211109Y269832D01*
X220300Y269801D01*
X220302Y269803D01*
G37*
G36*
X258402Y269803D02*
X258402Y269803D01*
X258404Y269801D01*
X258795Y269832D01*
X258799Y269836D01*
X258802Y269833D01*
X259184Y269924D01*
X259188Y269929D01*
X259192Y269927D01*
X259554Y270077D01*
X259557Y270082D01*
X259561Y270080D01*
X259895Y270285D01*
X259897Y270290D01*
X259901Y270290D01*
X260200Y270545D01*
X260201Y270550D01*
X260205Y270550D01*
X260460Y270849D01*
X260461Y270855D01*
X260465Y270855D01*
X260670Y271189D01*
X260669Y271195D01*
X260674Y271196D01*
X260824Y271558D01*
X260823Y271560D01*
X260824Y271560D01*
X260822Y271563D01*
X260822Y271564D01*
X260826Y271566D01*
X260917Y271948D01*
X260915Y271953D01*
X260917Y271954D01*
X260918Y271955D01*
X260949Y272346D01*
X260947Y272349D01*
X260949Y272350D01*
X260949Y277850D01*
X260947Y277852D01*
X260949Y277854D01*
X260918Y278245D01*
X260914Y278249D01*
X260917Y278252D01*
X260826Y278634D01*
X260821Y278638D01*
X260824Y278642D01*
X260674Y279004D01*
X260668Y279007D01*
X260670Y279011D01*
X260465Y279345D01*
X260460Y279347D01*
X260460Y279351D01*
X260205Y279650D01*
X260200Y279651D01*
X260200Y279655D01*
X259901Y279910D01*
X259895Y279911D01*
X259895Y279915D01*
X259561Y280120D01*
X259555Y280119D01*
X259554Y280124D01*
X259192Y280274D01*
X259186Y280272D01*
X259184Y280276D01*
X258802Y280367D01*
X258795Y280364D01*
X258791Y280368D01*
X249600Y280399D01*
X249598Y280397D01*
X249596Y280399D01*
X249205Y280368D01*
X249201Y280364D01*
X249198Y280367D01*
X248816Y280276D01*
X248812Y280271D01*
X248808Y280274D01*
X248446Y280124D01*
X248443Y280118D01*
X248439Y280120D01*
X248105Y279915D01*
X248103Y279910D01*
X248099Y279910D01*
X247800Y279655D01*
X247799Y279650D01*
X247795Y279650D01*
X247540Y279351D01*
X247539Y279345D01*
X247535Y279345D01*
X247330Y279011D01*
X247331Y279005D01*
X247327Y279004D01*
X247177Y278642D01*
X247178Y278636D01*
X247174Y278634D01*
X247083Y278252D01*
X247085Y278247D01*
X247082Y278245D01*
X247051Y277854D01*
X247053Y277851D01*
X247051Y277850D01*
X247051Y272350D01*
X247053Y272348D01*
X247051Y272346D01*
X247082Y271955D01*
X247086Y271951D01*
X247083Y271948D01*
X247174Y271566D01*
X247179Y271562D01*
X247177Y271558D01*
X247327Y271196D01*
X247332Y271193D01*
X247330Y271189D01*
X247535Y270855D01*
X247540Y270853D01*
X247540Y270849D01*
X247795Y270550D01*
X247800Y270549D01*
X247800Y270545D01*
X248099Y270290D01*
X248105Y270289D01*
X248105Y270285D01*
X248439Y270080D01*
X248445Y270081D01*
X248446Y270077D01*
X248808Y269927D01*
X248814Y269928D01*
X248816Y269924D01*
X249198Y269833D01*
X249205Y269836D01*
X249209Y269832D01*
X258400Y269801D01*
X258402Y269803D01*
G37*
G36*
X258402Y253003D02*
X258402Y253003D01*
X258404Y253001D01*
X258795Y253032D01*
X258799Y253036D01*
X258802Y253033D01*
X259184Y253124D01*
X259188Y253129D01*
X259192Y253127D01*
X259554Y253277D01*
X259557Y253282D01*
X259561Y253280D01*
X259895Y253485D01*
X259897Y253490D01*
X259901Y253490D01*
X260200Y253745D01*
X260201Y253750D01*
X260205Y253750D01*
X260460Y254049D01*
X260461Y254055D01*
X260465Y254055D01*
X260670Y254389D01*
X260669Y254395D01*
X260674Y254396D01*
X260824Y254758D01*
X260823Y254760D01*
X260824Y254760D01*
X260822Y254763D01*
X260822Y254764D01*
X260826Y254766D01*
X260917Y255148D01*
X260915Y255153D01*
X260917Y255154D01*
X260918Y255155D01*
X260949Y255546D01*
X260947Y255549D01*
X260949Y255550D01*
X260949Y261050D01*
X260947Y261052D01*
X260949Y261054D01*
X260918Y261445D01*
X260914Y261449D01*
X260917Y261452D01*
X260826Y261834D01*
X260821Y261838D01*
X260824Y261842D01*
X260674Y262204D01*
X260668Y262207D01*
X260670Y262211D01*
X260465Y262545D01*
X260460Y262547D01*
X260460Y262551D01*
X260205Y262850D01*
X260200Y262851D01*
X260200Y262855D01*
X259901Y263110D01*
X259895Y263111D01*
X259895Y263115D01*
X259561Y263320D01*
X259555Y263319D01*
X259554Y263324D01*
X259192Y263474D01*
X259186Y263472D01*
X259184Y263476D01*
X258802Y263567D01*
X258795Y263564D01*
X258791Y263568D01*
X249600Y263599D01*
X249598Y263597D01*
X249596Y263599D01*
X249205Y263568D01*
X249201Y263564D01*
X249198Y263567D01*
X248816Y263476D01*
X248812Y263471D01*
X248808Y263474D01*
X248446Y263324D01*
X248443Y263318D01*
X248439Y263320D01*
X248105Y263115D01*
X248103Y263110D01*
X248099Y263110D01*
X247800Y262855D01*
X247799Y262850D01*
X247795Y262850D01*
X247540Y262551D01*
X247539Y262545D01*
X247535Y262545D01*
X247330Y262211D01*
X247331Y262205D01*
X247327Y262204D01*
X247177Y261842D01*
X247178Y261836D01*
X247174Y261834D01*
X247083Y261452D01*
X247085Y261447D01*
X247082Y261445D01*
X247051Y261054D01*
X247053Y261051D01*
X247051Y261050D01*
X247051Y255550D01*
X247053Y255548D01*
X247051Y255546D01*
X247082Y255155D01*
X247086Y255151D01*
X247083Y255148D01*
X247174Y254766D01*
X247179Y254762D01*
X247177Y254758D01*
X247327Y254396D01*
X247332Y254393D01*
X247330Y254389D01*
X247535Y254055D01*
X247540Y254053D01*
X247540Y254049D01*
X247795Y253750D01*
X247800Y253749D01*
X247800Y253745D01*
X248099Y253490D01*
X248105Y253489D01*
X248105Y253485D01*
X248439Y253280D01*
X248445Y253281D01*
X248446Y253277D01*
X248808Y253127D01*
X248814Y253128D01*
X248816Y253124D01*
X249198Y253033D01*
X249205Y253036D01*
X249209Y253032D01*
X258400Y253001D01*
X258402Y253003D01*
G37*
G36*
X220302Y253003D02*
X220302Y253003D01*
X220304Y253001D01*
X220695Y253032D01*
X220699Y253036D01*
X220702Y253033D01*
X221084Y253124D01*
X221088Y253129D01*
X221092Y253127D01*
X221454Y253277D01*
X221457Y253282D01*
X221461Y253280D01*
X221795Y253485D01*
X221797Y253490D01*
X221801Y253490D01*
X222100Y253745D01*
X222101Y253750D01*
X222105Y253750D01*
X222360Y254049D01*
X222361Y254055D01*
X222365Y254055D01*
X222570Y254389D01*
X222569Y254395D01*
X222574Y254396D01*
X222724Y254758D01*
X222723Y254760D01*
X222724Y254760D01*
X222722Y254763D01*
X222722Y254764D01*
X222726Y254766D01*
X222817Y255148D01*
X222815Y255153D01*
X222817Y255154D01*
X222818Y255155D01*
X222849Y255546D01*
X222847Y255549D01*
X222849Y255550D01*
X222849Y261050D01*
X222847Y261052D01*
X222849Y261054D01*
X222818Y261445D01*
X222814Y261449D01*
X222817Y261452D01*
X222726Y261834D01*
X222721Y261838D01*
X222724Y261842D01*
X222574Y262204D01*
X222568Y262207D01*
X222570Y262211D01*
X222365Y262545D01*
X222360Y262547D01*
X222360Y262551D01*
X222105Y262850D01*
X222100Y262851D01*
X222100Y262855D01*
X221801Y263110D01*
X221795Y263111D01*
X221795Y263115D01*
X221461Y263320D01*
X221455Y263319D01*
X221454Y263324D01*
X221092Y263474D01*
X221086Y263472D01*
X221084Y263476D01*
X220702Y263567D01*
X220695Y263564D01*
X220691Y263568D01*
X211500Y263599D01*
X211498Y263597D01*
X211496Y263599D01*
X211105Y263568D01*
X211101Y263564D01*
X211098Y263567D01*
X210716Y263476D01*
X210712Y263471D01*
X210708Y263474D01*
X210346Y263324D01*
X210343Y263318D01*
X210339Y263320D01*
X210005Y263115D01*
X210003Y263110D01*
X209999Y263110D01*
X209700Y262855D01*
X209699Y262850D01*
X209695Y262850D01*
X209440Y262551D01*
X209439Y262545D01*
X209435Y262545D01*
X209230Y262211D01*
X209231Y262205D01*
X209227Y262204D01*
X209077Y261842D01*
X209078Y261836D01*
X209074Y261834D01*
X208983Y261452D01*
X208985Y261447D01*
X208982Y261445D01*
X208951Y261054D01*
X208953Y261051D01*
X208951Y261050D01*
X208951Y255550D01*
X208953Y255548D01*
X208951Y255546D01*
X208982Y255155D01*
X208986Y255151D01*
X208983Y255148D01*
X209074Y254766D01*
X209079Y254762D01*
X209077Y254758D01*
X209227Y254396D01*
X209232Y254393D01*
X209230Y254389D01*
X209435Y254055D01*
X209440Y254053D01*
X209440Y254049D01*
X209695Y253750D01*
X209700Y253749D01*
X209700Y253745D01*
X209999Y253490D01*
X210005Y253489D01*
X210005Y253485D01*
X210339Y253280D01*
X210345Y253281D01*
X210346Y253277D01*
X210708Y253127D01*
X210714Y253128D01*
X210716Y253124D01*
X211098Y253033D01*
X211105Y253036D01*
X211109Y253032D01*
X220300Y253001D01*
X220302Y253003D01*
G37*
G36*
X258402Y92003D02*
X258402Y92003D01*
X258404Y92001D01*
X258795Y92032D01*
X258799Y92036D01*
X258802Y92033D01*
X259184Y92124D01*
X259188Y92129D01*
X259192Y92127D01*
X259554Y92277D01*
X259557Y92282D01*
X259561Y92280D01*
X259895Y92485D01*
X259897Y92490D01*
X259901Y92490D01*
X260200Y92745D01*
X260201Y92750D01*
X260205Y92750D01*
X260460Y93049D01*
X260461Y93055D01*
X260465Y93055D01*
X260670Y93389D01*
X260669Y93395D01*
X260674Y93396D01*
X260824Y93758D01*
X260823Y93760D01*
X260824Y93760D01*
X260822Y93763D01*
X260822Y93764D01*
X260826Y93766D01*
X260917Y94148D01*
X260915Y94153D01*
X260917Y94154D01*
X260918Y94155D01*
X260949Y94546D01*
X260947Y94549D01*
X260949Y94550D01*
X260949Y100050D01*
X260947Y100052D01*
X260949Y100054D01*
X260918Y100445D01*
X260914Y100449D01*
X260917Y100452D01*
X260826Y100834D01*
X260821Y100838D01*
X260824Y100842D01*
X260674Y101204D01*
X260668Y101207D01*
X260670Y101211D01*
X260465Y101545D01*
X260460Y101547D01*
X260460Y101551D01*
X260205Y101850D01*
X260200Y101851D01*
X260200Y101855D01*
X259901Y102110D01*
X259895Y102111D01*
X259895Y102115D01*
X259561Y102320D01*
X259555Y102319D01*
X259554Y102324D01*
X259192Y102474D01*
X259186Y102472D01*
X259184Y102476D01*
X258802Y102567D01*
X258795Y102564D01*
X258791Y102568D01*
X249600Y102599D01*
X249598Y102597D01*
X249596Y102599D01*
X249205Y102568D01*
X249201Y102564D01*
X249198Y102567D01*
X248816Y102476D01*
X248812Y102471D01*
X248808Y102474D01*
X248446Y102324D01*
X248443Y102318D01*
X248439Y102320D01*
X248105Y102115D01*
X248103Y102110D01*
X248099Y102110D01*
X247800Y101855D01*
X247799Y101850D01*
X247795Y101850D01*
X247540Y101551D01*
X247539Y101545D01*
X247535Y101545D01*
X247330Y101211D01*
X247331Y101205D01*
X247327Y101204D01*
X247177Y100842D01*
X247178Y100836D01*
X247174Y100834D01*
X247083Y100452D01*
X247085Y100447D01*
X247082Y100445D01*
X247051Y100054D01*
X247053Y100051D01*
X247051Y100050D01*
X247051Y94550D01*
X247053Y94548D01*
X247051Y94546D01*
X247082Y94155D01*
X247086Y94151D01*
X247083Y94148D01*
X247174Y93766D01*
X247179Y93762D01*
X247177Y93758D01*
X247327Y93396D01*
X247332Y93393D01*
X247330Y93389D01*
X247535Y93055D01*
X247540Y93053D01*
X247540Y93049D01*
X247795Y92750D01*
X247800Y92749D01*
X247800Y92745D01*
X248099Y92490D01*
X248105Y92489D01*
X248105Y92485D01*
X248439Y92280D01*
X248445Y92281D01*
X248446Y92277D01*
X248808Y92127D01*
X248814Y92128D01*
X248816Y92124D01*
X249198Y92033D01*
X249205Y92036D01*
X249209Y92032D01*
X258400Y92001D01*
X258402Y92003D01*
G37*
G36*
X220302Y92003D02*
X220302Y92003D01*
X220304Y92001D01*
X220695Y92032D01*
X220699Y92036D01*
X220702Y92033D01*
X221084Y92124D01*
X221088Y92129D01*
X221092Y92127D01*
X221454Y92277D01*
X221457Y92282D01*
X221461Y92280D01*
X221795Y92485D01*
X221797Y92490D01*
X221801Y92490D01*
X222100Y92745D01*
X222101Y92750D01*
X222105Y92750D01*
X222360Y93049D01*
X222361Y93055D01*
X222365Y93055D01*
X222570Y93389D01*
X222569Y93395D01*
X222574Y93396D01*
X222724Y93758D01*
X222723Y93760D01*
X222724Y93760D01*
X222722Y93763D01*
X222722Y93764D01*
X222726Y93766D01*
X222817Y94148D01*
X222815Y94153D01*
X222817Y94154D01*
X222818Y94155D01*
X222849Y94546D01*
X222847Y94549D01*
X222849Y94550D01*
X222849Y100050D01*
X222847Y100052D01*
X222849Y100054D01*
X222818Y100445D01*
X222814Y100449D01*
X222817Y100452D01*
X222726Y100834D01*
X222721Y100838D01*
X222724Y100842D01*
X222574Y101204D01*
X222568Y101207D01*
X222570Y101211D01*
X222365Y101545D01*
X222360Y101547D01*
X222360Y101551D01*
X222105Y101850D01*
X222100Y101851D01*
X222100Y101855D01*
X221801Y102110D01*
X221795Y102111D01*
X221795Y102115D01*
X221461Y102320D01*
X221455Y102319D01*
X221454Y102324D01*
X221092Y102474D01*
X221086Y102472D01*
X221084Y102476D01*
X220702Y102567D01*
X220695Y102564D01*
X220691Y102568D01*
X211500Y102599D01*
X211498Y102597D01*
X211496Y102599D01*
X211105Y102568D01*
X211101Y102564D01*
X211098Y102567D01*
X210716Y102476D01*
X210712Y102471D01*
X210708Y102474D01*
X210346Y102324D01*
X210343Y102318D01*
X210339Y102320D01*
X210005Y102115D01*
X210003Y102110D01*
X209999Y102110D01*
X209700Y101855D01*
X209699Y101850D01*
X209695Y101850D01*
X209440Y101551D01*
X209439Y101545D01*
X209435Y101545D01*
X209230Y101211D01*
X209231Y101205D01*
X209227Y101204D01*
X209077Y100842D01*
X209078Y100836D01*
X209074Y100834D01*
X208983Y100452D01*
X208985Y100447D01*
X208982Y100445D01*
X208951Y100054D01*
X208953Y100051D01*
X208951Y100050D01*
X208951Y94550D01*
X208953Y94548D01*
X208951Y94546D01*
X208982Y94155D01*
X208986Y94151D01*
X208983Y94148D01*
X209074Y93766D01*
X209079Y93762D01*
X209077Y93758D01*
X209227Y93396D01*
X209232Y93393D01*
X209230Y93389D01*
X209435Y93055D01*
X209440Y93053D01*
X209440Y93049D01*
X209695Y92750D01*
X209700Y92749D01*
X209700Y92745D01*
X209999Y92490D01*
X210005Y92489D01*
X210005Y92485D01*
X210339Y92280D01*
X210345Y92281D01*
X210346Y92277D01*
X210708Y92127D01*
X210714Y92128D01*
X210716Y92124D01*
X211098Y92033D01*
X211105Y92036D01*
X211109Y92032D01*
X220300Y92001D01*
X220302Y92003D01*
G37*
G36*
X220302Y75203D02*
X220302Y75203D01*
X220304Y75201D01*
X220695Y75232D01*
X220699Y75236D01*
X220702Y75233D01*
X221084Y75324D01*
X221088Y75329D01*
X221092Y75327D01*
X221454Y75477D01*
X221457Y75482D01*
X221461Y75480D01*
X221795Y75685D01*
X221797Y75690D01*
X221801Y75690D01*
X222100Y75945D01*
X222101Y75950D01*
X222105Y75950D01*
X222360Y76249D01*
X222361Y76255D01*
X222365Y76255D01*
X222570Y76589D01*
X222569Y76595D01*
X222574Y76596D01*
X222724Y76958D01*
X222723Y76960D01*
X222724Y76960D01*
X222722Y76963D01*
X222722Y76964D01*
X222726Y76966D01*
X222817Y77348D01*
X222815Y77353D01*
X222817Y77354D01*
X222818Y77355D01*
X222849Y77746D01*
X222847Y77749D01*
X222849Y77750D01*
X222849Y83250D01*
X222847Y83252D01*
X222849Y83254D01*
X222818Y83645D01*
X222814Y83649D01*
X222817Y83652D01*
X222726Y84034D01*
X222721Y84038D01*
X222724Y84042D01*
X222574Y84404D01*
X222568Y84407D01*
X222570Y84411D01*
X222365Y84745D01*
X222360Y84747D01*
X222360Y84751D01*
X222105Y85050D01*
X222100Y85051D01*
X222100Y85055D01*
X221801Y85310D01*
X221795Y85311D01*
X221795Y85315D01*
X221461Y85520D01*
X221455Y85519D01*
X221454Y85524D01*
X221092Y85674D01*
X221086Y85672D01*
X221084Y85676D01*
X220702Y85767D01*
X220695Y85764D01*
X220691Y85768D01*
X211500Y85799D01*
X211498Y85797D01*
X211496Y85799D01*
X211105Y85768D01*
X211101Y85764D01*
X211098Y85767D01*
X210716Y85676D01*
X210712Y85671D01*
X210708Y85674D01*
X210346Y85524D01*
X210343Y85518D01*
X210339Y85520D01*
X210005Y85315D01*
X210003Y85310D01*
X209999Y85310D01*
X209700Y85055D01*
X209699Y85050D01*
X209695Y85050D01*
X209440Y84751D01*
X209439Y84745D01*
X209435Y84745D01*
X209230Y84411D01*
X209231Y84405D01*
X209227Y84404D01*
X209077Y84042D01*
X209078Y84036D01*
X209074Y84034D01*
X208983Y83652D01*
X208985Y83647D01*
X208982Y83645D01*
X208951Y83254D01*
X208953Y83251D01*
X208951Y83250D01*
X208951Y77750D01*
X208953Y77748D01*
X208951Y77746D01*
X208982Y77355D01*
X208986Y77351D01*
X208983Y77348D01*
X209074Y76966D01*
X209079Y76962D01*
X209077Y76958D01*
X209227Y76596D01*
X209232Y76593D01*
X209230Y76589D01*
X209435Y76255D01*
X209440Y76253D01*
X209440Y76249D01*
X209695Y75950D01*
X209700Y75949D01*
X209700Y75945D01*
X209999Y75690D01*
X210005Y75689D01*
X210005Y75685D01*
X210339Y75480D01*
X210345Y75481D01*
X210346Y75477D01*
X210708Y75327D01*
X210714Y75328D01*
X210716Y75324D01*
X211098Y75233D01*
X211105Y75236D01*
X211109Y75232D01*
X220300Y75201D01*
X220302Y75203D01*
G37*
G36*
X258402Y75203D02*
X258402Y75203D01*
X258404Y75201D01*
X258795Y75232D01*
X258799Y75236D01*
X258802Y75233D01*
X259184Y75324D01*
X259188Y75329D01*
X259192Y75327D01*
X259554Y75477D01*
X259557Y75482D01*
X259561Y75480D01*
X259895Y75685D01*
X259897Y75690D01*
X259901Y75690D01*
X260200Y75945D01*
X260201Y75950D01*
X260205Y75950D01*
X260460Y76249D01*
X260461Y76255D01*
X260465Y76255D01*
X260670Y76589D01*
X260669Y76595D01*
X260674Y76596D01*
X260824Y76958D01*
X260823Y76960D01*
X260824Y76960D01*
X260822Y76963D01*
X260822Y76964D01*
X260826Y76966D01*
X260917Y77348D01*
X260915Y77353D01*
X260917Y77354D01*
X260918Y77355D01*
X260949Y77746D01*
X260947Y77749D01*
X260949Y77750D01*
X260949Y83250D01*
X260947Y83252D01*
X260949Y83254D01*
X260918Y83645D01*
X260914Y83649D01*
X260917Y83652D01*
X260826Y84034D01*
X260821Y84038D01*
X260824Y84042D01*
X260674Y84404D01*
X260668Y84407D01*
X260670Y84411D01*
X260465Y84745D01*
X260460Y84747D01*
X260460Y84751D01*
X260205Y85050D01*
X260200Y85051D01*
X260200Y85055D01*
X259901Y85310D01*
X259895Y85311D01*
X259895Y85315D01*
X259561Y85520D01*
X259555Y85519D01*
X259554Y85524D01*
X259192Y85674D01*
X259186Y85672D01*
X259184Y85676D01*
X258802Y85767D01*
X258795Y85764D01*
X258791Y85768D01*
X249600Y85799D01*
X249598Y85797D01*
X249596Y85799D01*
X249205Y85768D01*
X249201Y85764D01*
X249198Y85767D01*
X248816Y85676D01*
X248812Y85671D01*
X248808Y85674D01*
X248446Y85524D01*
X248443Y85518D01*
X248439Y85520D01*
X248105Y85315D01*
X248103Y85310D01*
X248099Y85310D01*
X247800Y85055D01*
X247799Y85050D01*
X247795Y85050D01*
X247540Y84751D01*
X247539Y84745D01*
X247535Y84745D01*
X247330Y84411D01*
X247331Y84405D01*
X247327Y84404D01*
X247177Y84042D01*
X247178Y84036D01*
X247174Y84034D01*
X247083Y83652D01*
X247085Y83647D01*
X247082Y83645D01*
X247051Y83254D01*
X247053Y83251D01*
X247051Y83250D01*
X247051Y77750D01*
X247053Y77748D01*
X247051Y77746D01*
X247082Y77355D01*
X247086Y77351D01*
X247083Y77348D01*
X247174Y76966D01*
X247179Y76962D01*
X247177Y76958D01*
X247327Y76596D01*
X247332Y76593D01*
X247330Y76589D01*
X247535Y76255D01*
X247540Y76253D01*
X247540Y76249D01*
X247795Y75950D01*
X247800Y75949D01*
X247800Y75945D01*
X248099Y75690D01*
X248105Y75689D01*
X248105Y75685D01*
X248439Y75480D01*
X248445Y75481D01*
X248446Y75477D01*
X248808Y75327D01*
X248814Y75328D01*
X248816Y75324D01*
X249198Y75233D01*
X249205Y75236D01*
X249209Y75232D01*
X258400Y75201D01*
X258402Y75203D01*
G37*
D10*
X215900Y711200D03*
X215900Y685800D03*
X215900Y660400D03*
X215900Y635000D03*
X215900Y609600D03*
X215900Y584200D03*
X215900Y533400D03*
X215900Y508000D03*
X215900Y482600D03*
X215900Y457200D03*
X215900Y431800D03*
X215900Y406400D03*
X698500Y406400D03*
X698500Y431800D03*
X698500Y457200D03*
X698500Y482600D03*
X698500Y508000D03*
X698500Y533400D03*
X698500Y558800D03*
X698500Y584200D03*
X698500Y622300D03*
X698500Y647700D03*
X698500Y673100D03*
X698500Y698500D03*
X698500Y723900D03*
X698500Y749300D03*
X698500Y774700D03*
X698500Y800100D03*
X698500Y825500D03*
X698500Y850900D03*
X215900Y736600D03*
X215900Y762000D03*
D11*
X508000Y63500D03*
D12*
X508000Y88900D03*
X508000Y114300D03*
X508000Y139700D03*
X508000Y165100D03*
X508000Y190500D03*
X508000Y215900D03*
X508000Y241300D03*
X431800Y241300D03*
X431800Y215900D03*
X431800Y190500D03*
X431800Y165100D03*
X431800Y139700D03*
X431800Y114300D03*
X431800Y88900D03*
X431800Y63500D03*
D13*
X189014Y194214D02*
X189014Y210886D01*
X191986Y210886D01*
X191986Y194214D01*
X189014Y194214D01*
X189014Y199021D02*
X191986Y199021D01*
X191986Y203828D02*
X189014Y203828D01*
X189014Y208635D02*
X191986Y208635D01*
X201714Y210886D02*
X201714Y194214D01*
X201714Y210886D02*
X204686Y210886D01*
X204686Y194214D01*
X201714Y194214D01*
X201714Y199021D02*
X204686Y199021D01*
X204686Y203828D02*
X201714Y203828D01*
X201714Y208635D02*
X204686Y208635D01*
X214414Y210886D02*
X214414Y194214D01*
X214414Y210886D02*
X217386Y210886D01*
X217386Y194214D01*
X214414Y194214D01*
X214414Y199021D02*
X217386Y199021D01*
X217386Y203828D02*
X214414Y203828D01*
X214414Y208635D02*
X217386Y208635D01*
X227114Y210886D02*
X227114Y194214D01*
X227114Y210886D02*
X230086Y210886D01*
X230086Y194214D01*
X227114Y194214D01*
X227114Y199021D02*
X230086Y199021D01*
X230086Y203828D02*
X227114Y203828D01*
X227114Y208635D02*
X230086Y208635D01*
X239814Y210886D02*
X239814Y194214D01*
X239814Y210886D02*
X242786Y210886D01*
X242786Y194214D01*
X239814Y194214D01*
X239814Y199021D02*
X242786Y199021D01*
X242786Y203828D02*
X239814Y203828D01*
X239814Y208635D02*
X242786Y208635D01*
X252514Y210886D02*
X252514Y194214D01*
X252514Y210886D02*
X255486Y210886D01*
X255486Y194214D01*
X252514Y194214D01*
X252514Y199021D02*
X255486Y199021D01*
X255486Y203828D02*
X252514Y203828D01*
X252514Y208635D02*
X255486Y208635D01*
X265214Y210886D02*
X265214Y194214D01*
X265214Y210886D02*
X268186Y210886D01*
X268186Y194214D01*
X265214Y194214D01*
X265214Y199021D02*
X268186Y199021D01*
X268186Y203828D02*
X265214Y203828D01*
X265214Y208635D02*
X268186Y208635D01*
X265214Y161386D02*
X265214Y144714D01*
X265214Y161386D02*
X268186Y161386D01*
X268186Y144714D01*
X265214Y144714D01*
X265214Y149521D02*
X268186Y149521D01*
X268186Y154328D02*
X265214Y154328D01*
X265214Y159135D02*
X268186Y159135D01*
X252514Y161386D02*
X252514Y144714D01*
X252514Y161386D02*
X255486Y161386D01*
X255486Y144714D01*
X252514Y144714D01*
X252514Y149521D02*
X255486Y149521D01*
X255486Y154328D02*
X252514Y154328D01*
X252514Y159135D02*
X255486Y159135D01*
X239814Y161386D02*
X239814Y144714D01*
X239814Y161386D02*
X242786Y161386D01*
X242786Y144714D01*
X239814Y144714D01*
X239814Y149521D02*
X242786Y149521D01*
X242786Y154328D02*
X239814Y154328D01*
X239814Y159135D02*
X242786Y159135D01*
X227114Y161386D02*
X227114Y144714D01*
X227114Y161386D02*
X230086Y161386D01*
X230086Y144714D01*
X227114Y144714D01*
X227114Y149521D02*
X230086Y149521D01*
X230086Y154328D02*
X227114Y154328D01*
X227114Y159135D02*
X230086Y159135D01*
X214414Y161386D02*
X214414Y144714D01*
X214414Y161386D02*
X217386Y161386D01*
X217386Y144714D01*
X214414Y144714D01*
X214414Y149521D02*
X217386Y149521D01*
X217386Y154328D02*
X214414Y154328D01*
X214414Y159135D02*
X217386Y159135D01*
X201714Y161386D02*
X201714Y144714D01*
X201714Y161386D02*
X204686Y161386D01*
X204686Y144714D01*
X201714Y144714D01*
X201714Y149521D02*
X204686Y149521D01*
X204686Y154328D02*
X201714Y154328D01*
X201714Y159135D02*
X204686Y159135D01*
X189014Y161386D02*
X189014Y144714D01*
X189014Y161386D02*
X191986Y161386D01*
X191986Y144714D01*
X189014Y144714D01*
X189014Y149521D02*
X191986Y149521D01*
X191986Y154328D02*
X189014Y154328D01*
X189014Y159135D02*
X191986Y159135D01*
D14*
X318166Y158750D03*
X318166Y171450D03*
X318166Y184150D03*
X318166Y196850D03*
X367634Y196850D03*
X367634Y184150D03*
X367634Y171450D03*
X367634Y158750D03*
D15*
X190500Y350900D03*
X190500Y233300D03*
X279400Y233300D03*
X279400Y350900D03*
X279400Y122300D03*
X279400Y4700D03*
X190500Y4700D03*
X190500Y122300D03*
D16*
X211493Y255543D02*
X211493Y261057D01*
X220307Y261057D01*
X220307Y255543D01*
X211493Y255543D01*
X220307Y272343D02*
X220307Y277857D01*
X220307Y272343D02*
X211493Y272343D01*
X211493Y277857D01*
X220307Y277857D01*
X249593Y261057D02*
X249593Y255543D01*
X249593Y261057D02*
X258407Y261057D01*
X258407Y255543D01*
X249593Y255543D01*
X258407Y272343D02*
X258407Y277857D01*
X258407Y272343D02*
X249593Y272343D01*
X249593Y277857D01*
X258407Y277857D01*
X258407Y100057D02*
X258407Y94543D01*
X249593Y94543D01*
X249593Y100057D01*
X258407Y100057D01*
X249593Y83257D02*
X249593Y77743D01*
X249593Y83257D02*
X258407Y83257D01*
X258407Y77743D01*
X249593Y77743D01*
X220307Y94543D02*
X220307Y100057D01*
X220307Y94543D02*
X211493Y94543D01*
X211493Y100057D01*
X220307Y100057D01*
X211493Y83257D02*
X211493Y77743D01*
X211493Y83257D02*
X220307Y83257D01*
X220307Y77743D01*
X211493Y77743D01*
X93307Y856543D02*
X93307Y862057D01*
X93307Y856543D02*
X84493Y856543D01*
X84493Y862057D01*
X93307Y862057D01*
X84493Y845257D02*
X84493Y839743D01*
X84493Y845257D02*
X93307Y845257D01*
X93307Y839743D01*
X84493Y839743D01*
X173393Y890543D02*
X173393Y896057D01*
X182207Y896057D01*
X182207Y890543D01*
X173393Y890543D01*
X182207Y907343D02*
X182207Y912857D01*
X182207Y907343D02*
X173393Y907343D01*
X173393Y912857D01*
X182207Y912857D01*
X156807Y874757D02*
X156807Y869243D01*
X147993Y869243D01*
X147993Y874757D01*
X156807Y874757D01*
X147993Y857957D02*
X147993Y852443D01*
X147993Y857957D02*
X156807Y857957D01*
X156807Y852443D01*
X147993Y852443D01*
X71793Y413457D02*
X71793Y407943D01*
X71793Y413457D02*
X80607Y413457D01*
X80607Y407943D01*
X71793Y407943D01*
X80607Y424743D02*
X80607Y430257D01*
X80607Y424743D02*
X71793Y424743D01*
X71793Y430257D01*
X80607Y430257D01*
D17*
X88900Y901700D03*
D18*
X63500Y876300D03*
X114300Y876300D03*
X114300Y927100D03*
X63500Y927100D03*
D17*
X38100Y317500D03*
D18*
X63500Y292100D03*
X63500Y342900D03*
X12700Y342900D03*
X12700Y292100D03*
D19*
X825500Y563300D03*
D20*
X825500Y598300D03*
X825500Y633300D03*
X825500Y668300D03*
X825500Y703300D03*
X825500Y738300D03*
X825500Y773300D03*
X825500Y808300D03*
D19*
X38100Y4500D03*
D20*
X38100Y39500D03*
X38100Y74500D03*
X38100Y109500D03*
X38100Y144500D03*
X38100Y179500D03*
X38100Y214500D03*
X38100Y249500D03*
D21*
X698500Y885825D03*
X215900Y898525D03*
X257175Y387350D03*
D22*
X38100Y401600D03*
D23*
X38100Y436600D03*
D19*
X493600Y914400D03*
D20*
X528600Y914400D03*
X563600Y914400D03*
X598600Y914400D03*
D21*
X558800Y381000D03*
D24*
X50300Y702600D03*
X50300Y719600D03*
X50300Y736600D03*
X50300Y753600D03*
X50300Y770600D03*
D25*
X157800Y736600D03*
D26*
X127000Y618100D03*
X127000Y601100D03*
X101600Y601100D03*
X101600Y618100D03*
X76200Y618100D03*
X76200Y601100D03*
D16*
X55207Y615243D02*
X55207Y620757D01*
X55207Y615243D02*
X46393Y615243D01*
X46393Y620757D01*
X55207Y620757D01*
X46393Y603957D02*
X46393Y598443D01*
X46393Y603957D02*
X55207Y603957D01*
X55207Y598443D01*
X46393Y598443D01*
D27*
X0Y796700D03*
X0Y752700D03*
D28*
X285750Y673100D03*
D29*
X285750Y723900D03*
D28*
X285750Y787400D03*
D29*
X285750Y838200D03*
D19*
X747600Y901700D03*
D20*
X782600Y901700D03*
X817600Y901700D03*
X852600Y901700D03*
D30*
X417500Y924160D02*
X417500Y939240D01*
X344500Y939240D02*
X344500Y924160D01*
X417500Y891240D02*
X417500Y876160D01*
X344500Y876160D02*
X344500Y891240D01*
D10*
X609600Y279400D03*
X609600Y254000D03*
X609600Y228600D03*
X609600Y203200D03*
X609600Y177800D03*
X609600Y152400D03*
X609600Y127000D03*
X609600Y101600D03*
X609600Y76200D03*
X609600Y50800D03*
D31*
X508000Y304800D03*
X508000Y12700D03*
D10*
X609600Y749300D03*
X609600Y723900D03*
X609600Y698500D03*
X609600Y673100D03*
X609600Y647700D03*
X609600Y622300D03*
X609600Y596900D03*
X609600Y571500D03*
X609600Y546100D03*
X609600Y520700D03*
D31*
X508000Y774700D03*
X508000Y482600D03*
D32*
X857650Y621600D03*
X857650Y613600D03*
X857650Y605600D03*
X857650Y597600D03*
X844150Y597600D03*
X844150Y605600D03*
X844150Y613600D03*
X844150Y621600D03*
X146450Y189800D03*
X146450Y181800D03*
X146450Y173800D03*
X146450Y165800D03*
X132950Y165800D03*
X132950Y173800D03*
X132950Y181800D03*
X132950Y189800D03*
D33*
X419100Y587375D03*
D34*
X393700Y587375D03*
X368300Y587375D03*
D35*
X393700Y422275D03*
D36*
X393700Y422275D03*
D33*
X177800Y825500D03*
D34*
X152400Y825500D03*
X127000Y825500D03*
D35*
X152400Y660400D03*
D36*
X152400Y660400D03*
D33*
X63500Y825500D03*
D34*
X38100Y825500D03*
X12700Y825500D03*
D35*
X38100Y660400D03*
D36*
X38100Y660400D03*
D21*
X892175Y-57150D03*
X3175Y-57150D03*
X3175Y933450D03*
X892175Y933450D03*
D19*
X722200Y0D03*
D20*
X757200Y0D03*
X792200Y0D03*
X827200Y0D03*
D37*
X25400Y512400D03*
X25400Y554400D03*
D27*
X736600Y225200D03*
X736600Y181200D03*
D38*
X710062Y238262D02*
X661538Y238262D01*
X710062Y238262D02*
X710062Y212738D01*
X661538Y212738D01*
X661538Y238262D01*
X661538Y220821D02*
X710062Y220821D01*
X710062Y228904D02*
X661538Y228904D01*
X661538Y236987D02*
X710062Y236987D01*
X710062Y173262D02*
X661538Y173262D01*
X710062Y173262D02*
X710062Y147738D01*
X661538Y147738D01*
X661538Y173262D01*
X661538Y155821D02*
X710062Y155821D01*
X710062Y163904D02*
X661538Y163904D01*
X661538Y171987D02*
X710062Y171987D01*
D39*
X822800Y330200D03*
D40*
X729488Y296164D03*
X729488Y313182D03*
X729488Y330200D03*
X729488Y347218D03*
X729488Y364236D03*
D41*
X669400Y279400D03*
X651400Y279400D03*
X669400Y304800D03*
X651400Y304800D03*
X669400Y330200D03*
X651400Y330200D03*
X669400Y355600D03*
X651400Y355600D03*
D42*
X473174Y215900D03*
X292100Y190980D03*
X292100Y165100D03*
X173472Y406400D03*
X66675Y631825D03*
X95250Y736600D03*
X177800Y800100D03*
X215900Y825500D03*
D43*
X-25400Y-88900D02*
X923800Y-88900D01*
X923800Y965100D01*
X-25400Y965100D01*
X-25400Y-88900D01*
M02*
