M48
;GenerationSoftware,Autodesk,EAGLE,9.6.2*%
;CreationDate,2022-01-05T17:58:09Z*%
FMAT,2
ICI,OFF
METRIC,TZ,000.000
T14C0.350
T13C0.830
T12C1.000
T11C1.016
T10C1.100
T9C1.118
T8C1.200
T7C1.240
T6C1.500
T5C1.700
T4C3.048
T3C3.302
T2C3.429
T1C3.556
%
G90
M71
T1
X3810Y66040
X39370Y42228
X15240Y66040
T2
X50800Y1270
X50800Y77470
X50800Y48260
X50800Y30480
T3
X21590Y89852
X25717Y38735
X55880Y38100
X89217Y93345
X89217Y-5715
X318Y-5715
X318Y93345
X69850Y88582
T4
X39370Y42228
X3810Y66040
X15240Y66040
T5
X1270Y34290
X6350Y34290
X6350Y29210
X6350Y92710
X11430Y92710
X11430Y87630
X6350Y87630
X1270Y29210
T6
X3810Y31750
X8890Y90170
T7
X36830Y58737
X39370Y58737
X41910Y58737
X17780Y82550
X15240Y82550
X12700Y82550
X6350Y82550
X3810Y82550
X1270Y82550
T8
X3810Y43660
X3810Y40160
T9
X43180Y24130
X43180Y21590
X43180Y19050
X43180Y16510
X43180Y13970
X43180Y11430
X43180Y8890
X43180Y6350
X50800Y19050
X50800Y6350
X50800Y8890
X50800Y11430
X50800Y13970
X50800Y16510
X50800Y21590
X50800Y24130
T10
X3810Y21450
X3810Y24950
X82550Y59830
X82550Y63330
X49360Y91440
X52860Y91440
X56360Y91440
X82550Y66830
X74760Y90170
X78260Y90170
X81760Y90170
X85260Y90170
X82720Y0
X82550Y70330
X82550Y73830
X82550Y77330
X82550Y56330
X59860Y91440
X82550Y80830
X3810Y450
X3810Y3950
X3810Y7450
X3810Y10950
X3810Y14450
X3810Y17950
X72220Y0
X75720Y0
X79220Y0
T11
X21590Y63500
X21590Y60960
X21590Y58420
X21590Y53340
X21590Y50800
X21590Y48260
X21590Y45720
X21590Y43180
X21590Y40640
X69850Y40640
X69850Y43180
X69850Y45720
X28575Y67310
X28575Y72390
X28575Y78740
X28575Y83820
X69850Y50800
X69850Y53340
X69850Y55880
X69850Y58420
X69850Y62230
X60960Y27940
X60960Y25400
X60960Y22860
X60960Y20320
X60960Y17780
X60960Y15240
X60960Y12700
X60960Y10160
X60960Y7620
X60960Y5080
X60960Y74930
X60960Y72390
X60960Y69850
X60960Y67310
X60960Y64770
X60960Y62230
X60960Y59690
X60960Y57150
X60960Y54610
X60960Y52070
X69850Y64770
X69850Y67310
X69850Y69850
X69850Y72390
X69850Y74930
X69850Y77470
X69850Y80010
X69850Y82550
X69850Y85090
X21590Y73660
X21590Y76200
X69850Y48260
X21590Y71120
X21590Y68580
X21590Y66040
T12
X41750Y88370
X34450Y88370
X41750Y93170
X34450Y93170
T13
X19050Y35090
X19050Y12230
X19050Y470
X27940Y470
X27940Y12230
X27940Y35090
X27940Y23330
X19050Y23330
T14
X47317Y21590
X21590Y82550
X17780Y80010
X9525Y73660
X6667Y63182
X17347Y40640
X29210Y16510
X29210Y19098
M30