G04 EAGLE Gerber RS-274X export*
G75*
%MOMM*%
%FSLAX34Y34*%
%LPD*%
%INSolderpaste Top*%
%IPPOS*%
%AMOC8*
5,1,8,0,0,1.08239X$1,22.5*%
G01*
%ADD10C,0.504000*%
%ADD11R,0.500000X3.100000*%
%ADD12R,10.160000X17.780000*%
%ADD13R,1.100000X1.000000*%
%ADD14R,1.200000X0.800000*%
%ADD15C,0.254000*%

G36*
X373091Y650832D02*
X373091Y650832D01*
X373098Y650837D01*
X373102Y650833D01*
X373484Y650924D01*
X373488Y650929D01*
X373492Y650927D01*
X373854Y651077D01*
X373857Y651082D01*
X373861Y651080D01*
X374195Y651285D01*
X374197Y651290D01*
X374201Y651290D01*
X374500Y651545D01*
X374501Y651550D01*
X374505Y651550D01*
X374760Y651849D01*
X374761Y651855D01*
X374765Y651855D01*
X374970Y652189D01*
X374969Y652195D01*
X374974Y652196D01*
X375124Y652558D01*
X375123Y652560D01*
X375124Y652560D01*
X375122Y652563D01*
X375122Y652564D01*
X375126Y652566D01*
X375217Y652948D01*
X375215Y652953D01*
X375217Y652954D01*
X375218Y652955D01*
X375249Y653346D01*
X375247Y653349D01*
X375249Y653350D01*
X375249Y658850D01*
X375247Y658852D01*
X375249Y658854D01*
X375218Y659245D01*
X375214Y659249D01*
X375217Y659252D01*
X375126Y659634D01*
X375121Y659638D01*
X375124Y659642D01*
X374974Y660004D01*
X374968Y660007D01*
X374970Y660011D01*
X374765Y660345D01*
X374760Y660347D01*
X374760Y660351D01*
X374505Y660650D01*
X374500Y660651D01*
X374500Y660655D01*
X374201Y660910D01*
X374195Y660911D01*
X374195Y660915D01*
X373861Y661120D01*
X373855Y661119D01*
X373854Y661124D01*
X373492Y661274D01*
X373486Y661272D01*
X373484Y661276D01*
X373102Y661367D01*
X373097Y661365D01*
X373095Y661368D01*
X372704Y661399D01*
X372701Y661397D01*
X372700Y661399D01*
X363509Y661368D01*
X363502Y661363D01*
X363498Y661367D01*
X363116Y661276D01*
X363112Y661271D01*
X363108Y661274D01*
X362746Y661124D01*
X362743Y661118D01*
X362739Y661120D01*
X362405Y660915D01*
X362403Y660910D01*
X362399Y660910D01*
X362100Y660655D01*
X362099Y660650D01*
X362095Y660650D01*
X361840Y660351D01*
X361839Y660345D01*
X361835Y660345D01*
X361630Y660011D01*
X361631Y660005D01*
X361627Y660004D01*
X361477Y659642D01*
X361478Y659636D01*
X361474Y659634D01*
X361383Y659252D01*
X361385Y659247D01*
X361382Y659245D01*
X361351Y658854D01*
X361353Y658851D01*
X361351Y658850D01*
X361351Y653350D01*
X361353Y653348D01*
X361351Y653346D01*
X361382Y652955D01*
X361386Y652951D01*
X361383Y652948D01*
X361474Y652566D01*
X361479Y652562D01*
X361477Y652558D01*
X361627Y652196D01*
X361632Y652193D01*
X361630Y652189D01*
X361835Y651855D01*
X361840Y651853D01*
X361840Y651849D01*
X362095Y651550D01*
X362100Y651549D01*
X362100Y651545D01*
X362399Y651290D01*
X362405Y651289D01*
X362405Y651285D01*
X362739Y651080D01*
X362745Y651081D01*
X362746Y651077D01*
X363108Y650927D01*
X363114Y650928D01*
X363116Y650924D01*
X363498Y650833D01*
X363503Y650835D01*
X363505Y650832D01*
X363896Y650801D01*
X363899Y650803D01*
X363900Y650801D01*
X373091Y650832D01*
G37*
G36*
X373091Y634032D02*
X373091Y634032D01*
X373098Y634037D01*
X373102Y634033D01*
X373484Y634124D01*
X373488Y634129D01*
X373492Y634127D01*
X373854Y634277D01*
X373857Y634282D01*
X373861Y634280D01*
X374195Y634485D01*
X374197Y634490D01*
X374201Y634490D01*
X374500Y634745D01*
X374501Y634750D01*
X374505Y634750D01*
X374760Y635049D01*
X374761Y635055D01*
X374765Y635055D01*
X374970Y635389D01*
X374969Y635395D01*
X374974Y635396D01*
X375124Y635758D01*
X375123Y635760D01*
X375124Y635760D01*
X375122Y635763D01*
X375122Y635764D01*
X375126Y635766D01*
X375217Y636148D01*
X375215Y636153D01*
X375217Y636154D01*
X375218Y636155D01*
X375249Y636546D01*
X375247Y636549D01*
X375249Y636550D01*
X375249Y642050D01*
X375247Y642052D01*
X375249Y642054D01*
X375218Y642445D01*
X375214Y642449D01*
X375217Y642452D01*
X375126Y642834D01*
X375121Y642838D01*
X375124Y642842D01*
X374974Y643204D01*
X374968Y643207D01*
X374970Y643211D01*
X374765Y643545D01*
X374760Y643547D01*
X374760Y643551D01*
X374505Y643850D01*
X374500Y643851D01*
X374500Y643855D01*
X374201Y644110D01*
X374195Y644111D01*
X374195Y644115D01*
X373861Y644320D01*
X373855Y644319D01*
X373854Y644324D01*
X373492Y644474D01*
X373486Y644472D01*
X373484Y644476D01*
X373102Y644567D01*
X373097Y644565D01*
X373095Y644568D01*
X372704Y644599D01*
X372701Y644597D01*
X372700Y644599D01*
X363509Y644568D01*
X363502Y644563D01*
X363498Y644567D01*
X363116Y644476D01*
X363112Y644471D01*
X363108Y644474D01*
X362746Y644324D01*
X362743Y644318D01*
X362739Y644320D01*
X362405Y644115D01*
X362403Y644110D01*
X362399Y644110D01*
X362100Y643855D01*
X362099Y643850D01*
X362095Y643850D01*
X361840Y643551D01*
X361839Y643545D01*
X361835Y643545D01*
X361630Y643211D01*
X361631Y643205D01*
X361627Y643204D01*
X361477Y642842D01*
X361478Y642836D01*
X361474Y642834D01*
X361383Y642452D01*
X361385Y642447D01*
X361382Y642445D01*
X361351Y642054D01*
X361353Y642051D01*
X361351Y642050D01*
X361351Y636550D01*
X361353Y636548D01*
X361351Y636546D01*
X361382Y636155D01*
X361386Y636151D01*
X361383Y636148D01*
X361474Y635766D01*
X361479Y635762D01*
X361477Y635758D01*
X361627Y635396D01*
X361632Y635393D01*
X361630Y635389D01*
X361835Y635055D01*
X361840Y635053D01*
X361840Y635049D01*
X362095Y634750D01*
X362100Y634749D01*
X362100Y634745D01*
X362399Y634490D01*
X362405Y634489D01*
X362405Y634485D01*
X362739Y634280D01*
X362745Y634281D01*
X362746Y634277D01*
X363108Y634127D01*
X363114Y634128D01*
X363116Y634124D01*
X363498Y634033D01*
X363503Y634035D01*
X363505Y634032D01*
X363896Y634001D01*
X363899Y634003D01*
X363900Y634001D01*
X373091Y634032D01*
G37*
D10*
X372680Y658830D02*
X372680Y653370D01*
X363920Y653370D01*
X363920Y658830D01*
X372680Y658830D01*
X372680Y658158D02*
X363920Y658158D01*
X363920Y642030D02*
X363920Y636570D01*
X363920Y642030D02*
X372680Y642030D01*
X372680Y636570D01*
X363920Y636570D01*
X363920Y641358D02*
X372680Y641358D01*
D11*
X397000Y871700D03*
X389000Y871700D03*
X381000Y871700D03*
X373000Y871700D03*
X365000Y871700D03*
D12*
X393700Y460375D03*
X152400Y698500D03*
X38100Y698500D03*
D13*
X388375Y723900D03*
X405375Y723900D03*
D14*
X419100Y638700D03*
X419100Y656700D03*
D15*
X-25400Y-88900D02*
X923800Y-88900D01*
X923800Y965100D01*
X-25400Y965100D01*
X-25400Y-88900D01*
M02*
