G04 EAGLE Gerber RS-274X export*
G75*
%MOMM*%
%FSLAX34Y34*%
%LPD*%
%INSoldermask Top*%
%IPPOS*%
%AMOC8*
5,1,8,0,0,1.08239X$1,22.5*%
G01*
%ADD10C,2.082800*%
%ADD11R,1.879600X1.879600*%
%ADD12C,1.879600*%
%ADD13C,1.633200*%
%ADD14C,0.701791*%
%ADD15C,2.453200*%
%ADD16C,2.753200*%
%ADD17R,1.853200X1.853200*%
%ADD18C,1.853200*%
%ADD19C,3.505200*%
%ADD20R,2.003200X2.003200*%
%ADD21C,2.003200*%
%ADD22C,2.743200*%
%ADD23P,2.969212X8X112.500000*%
%ADD24C,1.711200*%
%ADD25R,0.703200X3.303200*%
%ADD26C,3.632200*%
%ADD27R,2.063200X2.063200*%
%ADD28C,2.063200*%
%ADD29C,4.775200*%
%ADD30R,10.363200X17.983200*%
%ADD31C,3.251200*%
%ADD32R,1.303200X1.203200*%
%ADD33R,1.403200X1.003200*%
%ADD34C,0.959600*%
%ADD35C,0.254000*%

G36*
X373091Y650832D02*
X373091Y650832D01*
X373098Y650837D01*
X373102Y650833D01*
X373484Y650924D01*
X373488Y650929D01*
X373492Y650927D01*
X373854Y651077D01*
X373857Y651082D01*
X373861Y651080D01*
X374195Y651285D01*
X374197Y651290D01*
X374201Y651290D01*
X374500Y651545D01*
X374501Y651550D01*
X374505Y651550D01*
X374760Y651849D01*
X374761Y651855D01*
X374765Y651855D01*
X374970Y652189D01*
X374969Y652195D01*
X374974Y652196D01*
X375124Y652558D01*
X375123Y652560D01*
X375124Y652560D01*
X375122Y652563D01*
X375122Y652564D01*
X375126Y652566D01*
X375217Y652948D01*
X375215Y652953D01*
X375217Y652954D01*
X375218Y652955D01*
X375249Y653346D01*
X375247Y653349D01*
X375249Y653350D01*
X375249Y658850D01*
X375247Y658852D01*
X375249Y658854D01*
X375218Y659245D01*
X375214Y659249D01*
X375217Y659252D01*
X375126Y659634D01*
X375121Y659638D01*
X375124Y659642D01*
X374974Y660004D01*
X374968Y660007D01*
X374970Y660011D01*
X374765Y660345D01*
X374760Y660347D01*
X374760Y660351D01*
X374505Y660650D01*
X374500Y660651D01*
X374500Y660655D01*
X374201Y660910D01*
X374195Y660911D01*
X374195Y660915D01*
X373861Y661120D01*
X373855Y661119D01*
X373854Y661124D01*
X373492Y661274D01*
X373486Y661272D01*
X373484Y661276D01*
X373102Y661367D01*
X373097Y661365D01*
X373095Y661368D01*
X372704Y661399D01*
X372701Y661397D01*
X372700Y661399D01*
X363509Y661368D01*
X363502Y661363D01*
X363498Y661367D01*
X363116Y661276D01*
X363112Y661271D01*
X363108Y661274D01*
X362746Y661124D01*
X362743Y661118D01*
X362739Y661120D01*
X362405Y660915D01*
X362403Y660910D01*
X362399Y660910D01*
X362100Y660655D01*
X362099Y660650D01*
X362095Y660650D01*
X361840Y660351D01*
X361839Y660345D01*
X361835Y660345D01*
X361630Y660011D01*
X361631Y660005D01*
X361627Y660004D01*
X361477Y659642D01*
X361478Y659636D01*
X361474Y659634D01*
X361383Y659252D01*
X361385Y659247D01*
X361382Y659245D01*
X361351Y658854D01*
X361353Y658851D01*
X361351Y658850D01*
X361351Y653350D01*
X361353Y653348D01*
X361351Y653346D01*
X361382Y652955D01*
X361386Y652951D01*
X361383Y652948D01*
X361474Y652566D01*
X361479Y652562D01*
X361477Y652558D01*
X361627Y652196D01*
X361632Y652193D01*
X361630Y652189D01*
X361835Y651855D01*
X361840Y651853D01*
X361840Y651849D01*
X362095Y651550D01*
X362100Y651549D01*
X362100Y651545D01*
X362399Y651290D01*
X362405Y651289D01*
X362405Y651285D01*
X362739Y651080D01*
X362745Y651081D01*
X362746Y651077D01*
X363108Y650927D01*
X363114Y650928D01*
X363116Y650924D01*
X363498Y650833D01*
X363503Y650835D01*
X363505Y650832D01*
X363896Y650801D01*
X363899Y650803D01*
X363900Y650801D01*
X373091Y650832D01*
G37*
G36*
X373091Y634032D02*
X373091Y634032D01*
X373098Y634037D01*
X373102Y634033D01*
X373484Y634124D01*
X373488Y634129D01*
X373492Y634127D01*
X373854Y634277D01*
X373857Y634282D01*
X373861Y634280D01*
X374195Y634485D01*
X374197Y634490D01*
X374201Y634490D01*
X374500Y634745D01*
X374501Y634750D01*
X374505Y634750D01*
X374760Y635049D01*
X374761Y635055D01*
X374765Y635055D01*
X374970Y635389D01*
X374969Y635395D01*
X374974Y635396D01*
X375124Y635758D01*
X375123Y635760D01*
X375124Y635760D01*
X375122Y635763D01*
X375122Y635764D01*
X375126Y635766D01*
X375217Y636148D01*
X375215Y636153D01*
X375217Y636154D01*
X375218Y636155D01*
X375249Y636546D01*
X375247Y636549D01*
X375249Y636550D01*
X375249Y642050D01*
X375247Y642052D01*
X375249Y642054D01*
X375218Y642445D01*
X375214Y642449D01*
X375217Y642452D01*
X375126Y642834D01*
X375121Y642838D01*
X375124Y642842D01*
X374974Y643204D01*
X374968Y643207D01*
X374970Y643211D01*
X374765Y643545D01*
X374760Y643547D01*
X374760Y643551D01*
X374505Y643850D01*
X374500Y643851D01*
X374500Y643855D01*
X374201Y644110D01*
X374195Y644111D01*
X374195Y644115D01*
X373861Y644320D01*
X373855Y644319D01*
X373854Y644324D01*
X373492Y644474D01*
X373486Y644472D01*
X373484Y644476D01*
X373102Y644567D01*
X373097Y644565D01*
X373095Y644568D01*
X372704Y644599D01*
X372701Y644597D01*
X372700Y644599D01*
X363509Y644568D01*
X363502Y644563D01*
X363498Y644567D01*
X363116Y644476D01*
X363112Y644471D01*
X363108Y644474D01*
X362746Y644324D01*
X362743Y644318D01*
X362739Y644320D01*
X362405Y644115D01*
X362403Y644110D01*
X362399Y644110D01*
X362100Y643855D01*
X362099Y643850D01*
X362095Y643850D01*
X361840Y643551D01*
X361839Y643545D01*
X361835Y643545D01*
X361630Y643211D01*
X361631Y643205D01*
X361627Y643204D01*
X361477Y642842D01*
X361478Y642836D01*
X361474Y642834D01*
X361383Y642452D01*
X361385Y642447D01*
X361382Y642445D01*
X361351Y642054D01*
X361353Y642051D01*
X361351Y642050D01*
X361351Y636550D01*
X361353Y636548D01*
X361351Y636546D01*
X361382Y636155D01*
X361386Y636151D01*
X361383Y636148D01*
X361474Y635766D01*
X361479Y635762D01*
X361477Y635758D01*
X361627Y635396D01*
X361632Y635393D01*
X361630Y635389D01*
X361835Y635055D01*
X361840Y635053D01*
X361840Y635049D01*
X362095Y634750D01*
X362100Y634749D01*
X362100Y634745D01*
X362399Y634490D01*
X362405Y634489D01*
X362405Y634485D01*
X362739Y634280D01*
X362745Y634281D01*
X362746Y634277D01*
X363108Y634127D01*
X363114Y634128D01*
X363116Y634124D01*
X363498Y634033D01*
X363503Y634035D01*
X363505Y634032D01*
X363896Y634001D01*
X363899Y634003D01*
X363900Y634001D01*
X373091Y634032D01*
G37*
D10*
X215900Y711200D03*
X215900Y685800D03*
X215900Y660400D03*
X215900Y635000D03*
X215900Y609600D03*
X215900Y584200D03*
X215900Y533400D03*
X215900Y508000D03*
X215900Y482600D03*
X215900Y457200D03*
X215900Y431800D03*
X215900Y406400D03*
X698500Y406400D03*
X698500Y431800D03*
X698500Y457200D03*
X698500Y482600D03*
X698500Y508000D03*
X698500Y533400D03*
X698500Y558800D03*
X698500Y584200D03*
X698500Y622300D03*
X698500Y647700D03*
X698500Y673100D03*
X698500Y698500D03*
X698500Y723900D03*
X698500Y749300D03*
X698500Y774700D03*
X698500Y800100D03*
X698500Y825500D03*
X698500Y850900D03*
X215900Y736600D03*
X215900Y762000D03*
D11*
X508000Y63500D03*
D12*
X508000Y88900D03*
X508000Y114300D03*
X508000Y139700D03*
X508000Y165100D03*
X508000Y190500D03*
X508000Y215900D03*
X508000Y241300D03*
X431800Y241300D03*
X431800Y215900D03*
X431800Y190500D03*
X431800Y165100D03*
X431800Y139700D03*
X431800Y114300D03*
X431800Y88900D03*
X431800Y63500D03*
D13*
X190500Y350900D03*
X190500Y233300D03*
X279400Y233300D03*
X279400Y350900D03*
X279400Y122300D03*
X279400Y4700D03*
X190500Y4700D03*
X190500Y122300D03*
D14*
X372707Y653343D02*
X372707Y658857D01*
X372707Y653343D02*
X363893Y653343D01*
X363893Y658857D01*
X372707Y658857D01*
X363893Y642057D02*
X363893Y636543D01*
X363893Y642057D02*
X372707Y642057D01*
X372707Y636543D01*
X363893Y636543D01*
D15*
X88900Y901700D03*
D16*
X63500Y876300D03*
X114300Y876300D03*
X114300Y927100D03*
X63500Y927100D03*
D15*
X38100Y317500D03*
D16*
X63500Y292100D03*
X63500Y342900D03*
X12700Y342900D03*
X12700Y292100D03*
D17*
X825500Y563300D03*
D18*
X825500Y598300D03*
X825500Y633300D03*
X825500Y668300D03*
X825500Y703300D03*
X825500Y738300D03*
X825500Y773300D03*
X825500Y808300D03*
D17*
X38100Y4500D03*
D18*
X38100Y39500D03*
X38100Y74500D03*
X38100Y109500D03*
X38100Y144500D03*
X38100Y179500D03*
X38100Y214500D03*
X38100Y249500D03*
D19*
X698500Y885825D03*
X215900Y898525D03*
X257175Y387350D03*
D20*
X38100Y401600D03*
D21*
X38100Y436600D03*
D17*
X493600Y914400D03*
D18*
X528600Y914400D03*
X563600Y914400D03*
X598600Y914400D03*
D19*
X558800Y381000D03*
D22*
X285750Y673100D03*
D23*
X285750Y723900D03*
D22*
X285750Y787400D03*
D23*
X285750Y838200D03*
D17*
X747600Y901700D03*
D18*
X782600Y901700D03*
X817600Y901700D03*
X852600Y901700D03*
D24*
X417500Y924160D02*
X417500Y939240D01*
X344500Y939240D02*
X344500Y924160D01*
X417500Y891240D02*
X417500Y876160D01*
X344500Y876160D02*
X344500Y891240D01*
D25*
X397000Y871700D03*
X389000Y871700D03*
X381000Y871700D03*
X373000Y871700D03*
X365000Y871700D03*
D10*
X609600Y279400D03*
X609600Y254000D03*
X609600Y228600D03*
X609600Y203200D03*
X609600Y177800D03*
X609600Y152400D03*
X609600Y127000D03*
X609600Y101600D03*
X609600Y76200D03*
X609600Y50800D03*
D26*
X508000Y304800D03*
X508000Y12700D03*
D10*
X609600Y749300D03*
X609600Y723900D03*
X609600Y698500D03*
X609600Y673100D03*
X609600Y647700D03*
X609600Y622300D03*
X609600Y596900D03*
X609600Y571500D03*
X609600Y546100D03*
X609600Y520700D03*
D26*
X508000Y774700D03*
X508000Y482600D03*
D27*
X419100Y587375D03*
D28*
X393700Y587375D03*
X368300Y587375D03*
D29*
X393700Y422275D03*
D30*
X393700Y460375D03*
D31*
X393700Y422275D03*
D27*
X177800Y825500D03*
D28*
X152400Y825500D03*
X127000Y825500D03*
D29*
X152400Y660400D03*
D30*
X152400Y698500D03*
D31*
X152400Y660400D03*
D27*
X63500Y825500D03*
D28*
X38100Y825500D03*
X12700Y825500D03*
D29*
X38100Y660400D03*
D30*
X38100Y698500D03*
D31*
X38100Y660400D03*
D19*
X892175Y-57150D03*
X3175Y-57150D03*
X3175Y933450D03*
X892175Y933450D03*
D32*
X388375Y723900D03*
X405375Y723900D03*
D17*
X722200Y0D03*
D18*
X757200Y0D03*
X792200Y0D03*
X827200Y0D03*
D33*
X419100Y638700D03*
X419100Y656700D03*
D34*
X473174Y215900D03*
X292100Y190980D03*
X292100Y165100D03*
X173472Y406400D03*
X66675Y631825D03*
X95250Y736600D03*
X177800Y800100D03*
X215900Y825500D03*
D35*
X-25400Y-88900D02*
X923800Y-88900D01*
X923800Y965100D01*
X-25400Y965100D01*
X-25400Y-88900D01*
M02*
